<mxfile host="app.diagrams.net" agent="Mozilla/5.0 (Windows NT 10.0; Win64; x64) AppleWebKit/537.36 (KHTML, like Gecko) Chrome/134.0.0.0 Safari/537.36" version="26.1.0" pages="3">
  <diagram id="onUXd6aVZStfC4vxd8hJ" name="Regra de negocio de impostos">
    <mxGraphModel dx="1984" dy="409" grid="1" gridSize="10" guides="1" tooltips="1" connect="1" arrows="1" fold="1" page="1" pageScale="1" pageWidth="827" pageHeight="1169" math="0" shadow="0">
      <root>
        <mxCell id="0" />
        <mxCell id="1" parent="0" />
        <mxCell id="rbPHIqEnegWGpRosWhuS-1" value="Regra de negocio de impostos." style="whiteSpace=wrap;html=1;" parent="1" vertex="1">
          <mxGeometry x="365" y="10" width="180" height="40" as="geometry" />
        </mxCell>
        <mxCell id="rbPHIqEnegWGpRosWhuS-2" value="Impostos calculados:&amp;nbsp;ICMS, ISS, IPI, e Os que o admin cadastrar {&lt;span style=&quot;background-color: transparent;&quot;&gt;realizar cálculos com base no tipo de imposto e no&lt;/span&gt;&lt;div&gt;valor base fornecido.}&lt;/div&gt;" style="whiteSpace=wrap;html=1;" parent="1" vertex="1">
          <mxGeometry x="100" y="135" width="670" height="60" as="geometry" />
        </mxCell>
        <mxCell id="rbPHIqEnegWGpRosWhuS-4" value="Serviços oferecidos" style="shape=tape;whiteSpace=wrap;html=1;" parent="1" vertex="1">
          <mxGeometry x="347" y="360" width="134" height="60" as="geometry" />
        </mxCell>
        <mxCell id="rbPHIqEnegWGpRosWhuS-5" value="Listar todos os tipos de impostos disponíveis.&lt;div&gt;(GET /tipos)- -&amp;gt;&amp;nbsp;Resposta (200):&lt;/div&gt;" style="whiteSpace=wrap;html=1;" parent="1" vertex="1">
          <mxGeometry x="-10" y="400" width="260" height="60" as="geometry" />
        </mxCell>
        <mxCell id="rbPHIqEnegWGpRosWhuS-6" value="Cadastrar novos tipos de impostos (nome, descrição e alíquota).&lt;div&gt;(POST /tipos) --&amp;gt;&amp;nbsp;restrito ao papel de ADMIN.&lt;/div&gt;&lt;div&gt;Resposta (201):&lt;/div&gt;" style="whiteSpace=wrap;html=1;" parent="1" vertex="1">
          <mxGeometry x="239" y="570" width="350" height="60" as="geometry" />
        </mxCell>
        <mxCell id="rbPHIqEnegWGpRosWhuS-7" value="Obter detalhes de um tipo de imposto específico pelo ID.&lt;div&gt;&lt;br&gt;&lt;/div&gt;" style="whiteSpace=wrap;html=1;" parent="1" vertex="1">
          <mxGeometry x="-35" y="480" width="310" height="60" as="geometry" />
        </mxCell>
        <mxCell id="rbPHIqEnegWGpRosWhuS-8" value="Excluir um tipo de imposto pelo ID." style="whiteSpace=wrap;html=1;" parent="1" vertex="1">
          <mxGeometry x="610" y="340" width="120" height="60" as="geometry" />
        </mxCell>
        <mxCell id="rbPHIqEnegWGpRosWhuS-9" value="&lt;div&gt;Como calcula o imposto?&lt;/div&gt;&lt;div&gt;Com base no tipo de imposto (identificado pelo ID) e no&lt;/div&gt;&lt;div&gt;valor base fornecido.&lt;/div&gt;" style="ellipse;shape=cloud;whiteSpace=wrap;html=1;" parent="1" vertex="1">
          <mxGeometry x="770" y="10" width="290" height="160" as="geometry" />
        </mxCell>
        <mxCell id="T7lTxSipbUwqRpP6f_Bj-1" value="" style="edgeStyle=none;orthogonalLoop=1;jettySize=auto;html=1;rounded=0;exitX=0.428;exitY=0.958;exitDx=0;exitDy=0;exitPerimeter=0;" parent="1" source="rbPHIqEnegWGpRosWhuS-1" edge="1">
          <mxGeometry width="100" relative="1" as="geometry">
            <mxPoint x="390" y="70" as="sourcePoint" />
            <mxPoint x="442" y="130" as="targetPoint" />
            <Array as="points" />
          </mxGeometry>
        </mxCell>
        <mxCell id="T7lTxSipbUwqRpP6f_Bj-2" value="" style="edgeStyle=none;orthogonalLoop=1;jettySize=auto;html=1;rounded=0;entryX=0.329;entryY=0.847;entryDx=0;entryDy=0;entryPerimeter=0;exitX=1;exitY=0.5;exitDx=0;exitDy=0;" parent="1" source="rbPHIqEnegWGpRosWhuS-2" target="rbPHIqEnegWGpRosWhuS-9" edge="1">
          <mxGeometry width="100" relative="1" as="geometry">
            <mxPoint x="750" y="190" as="sourcePoint" />
            <mxPoint x="850" y="190" as="targetPoint" />
            <Array as="points" />
          </mxGeometry>
        </mxCell>
        <mxCell id="T7lTxSipbUwqRpP6f_Bj-4" value="" style="edgeStyle=none;orthogonalLoop=1;jettySize=auto;html=1;rounded=0;entryX=1;entryY=0.25;entryDx=0;entryDy=0;exitX=0.128;exitY=0.949;exitDx=0;exitDy=0;exitPerimeter=0;" parent="1" source="rbPHIqEnegWGpRosWhuS-4" target="rbPHIqEnegWGpRosWhuS-5" edge="1">
          <mxGeometry width="100" relative="1" as="geometry">
            <mxPoint x="410" y="300" as="sourcePoint" />
            <mxPoint x="340" y="370" as="targetPoint" />
            <Array as="points" />
          </mxGeometry>
        </mxCell>
        <mxCell id="T7lTxSipbUwqRpP6f_Bj-7" value="" style="edgeStyle=none;orthogonalLoop=1;jettySize=auto;html=1;rounded=0;exitX=0.382;exitY=0.943;exitDx=0;exitDy=0;exitPerimeter=0;" parent="1" source="rbPHIqEnegWGpRosWhuS-4" edge="1">
          <mxGeometry width="100" relative="1" as="geometry">
            <mxPoint x="431.43" y="310" as="sourcePoint" />
            <mxPoint x="410" y="570" as="targetPoint" />
            <Array as="points" />
          </mxGeometry>
        </mxCell>
        <mxCell id="T7lTxSipbUwqRpP6f_Bj-8" value="" style="edgeStyle=none;orthogonalLoop=1;jettySize=auto;html=1;rounded=0;exitX=0.193;exitY=1.019;exitDx=0;exitDy=0;exitPerimeter=0;entryX=0.947;entryY=-0.054;entryDx=0;entryDy=0;entryPerimeter=0;" parent="1" source="rbPHIqEnegWGpRosWhuS-4" target="rbPHIqEnegWGpRosWhuS-7" edge="1">
          <mxGeometry width="100" relative="1" as="geometry">
            <mxPoint x="430" y="339" as="sourcePoint" />
            <mxPoint x="480" y="390" as="targetPoint" />
            <Array as="points" />
          </mxGeometry>
        </mxCell>
        <mxCell id="T7lTxSipbUwqRpP6f_Bj-9" value="" style="edgeStyle=none;orthogonalLoop=1;jettySize=auto;html=1;rounded=0;entryX=0.036;entryY=0.351;entryDx=0;entryDy=0;entryPerimeter=0;exitX=0.967;exitY=0.4;exitDx=0;exitDy=0;exitPerimeter=0;" parent="1" source="rbPHIqEnegWGpRosWhuS-4" target="rbPHIqEnegWGpRosWhuS-8" edge="1">
          <mxGeometry width="100" relative="1" as="geometry">
            <mxPoint x="480" y="370" as="sourcePoint" />
            <mxPoint x="600" y="290" as="targetPoint" />
            <Array as="points" />
          </mxGeometry>
        </mxCell>
        <mxCell id="YijYOX3hYzCH5UvkE8PR-1" value="" style="edgeStyle=none;orthogonalLoop=1;jettySize=auto;html=1;rounded=0;exitX=1;exitY=0.65;exitDx=0;exitDy=0;exitPerimeter=0;entryX=0.113;entryY=-0.008;entryDx=0;entryDy=0;entryPerimeter=0;" parent="1" source="rbPHIqEnegWGpRosWhuS-4" target="YijYOX3hYzCH5UvkE8PR-3" edge="1">
          <mxGeometry width="100" relative="1" as="geometry">
            <mxPoint x="470" y="350" as="sourcePoint" />
            <mxPoint x="580" y="410" as="targetPoint" />
            <Array as="points" />
          </mxGeometry>
        </mxCell>
        <mxCell id="YijYOX3hYzCH5UvkE8PR-3" value="Calcular o valor do imposto com base no tipo de imposto (identificado pelo ID) e no valor base fornecido." style="whiteSpace=wrap;html=1;" parent="1" vertex="1">
          <mxGeometry x="570" y="410" width="150" height="80" as="geometry" />
        </mxCell>
        <mxCell id="YijYOX3hYzCH5UvkE8PR-4" value="Usuarios != ADM&amp;nbsp;" style="whiteSpace=wrap;html=1;" parent="1" vertex="1">
          <mxGeometry x="-330" y="440" width="120" height="60" as="geometry" />
        </mxCell>
        <mxCell id="YijYOX3hYzCH5UvkE8PR-5" value="" style="edgeStyle=none;orthogonalLoop=1;jettySize=auto;html=1;endArrow=classic;startArrow=classic;endSize=8;startSize=8;rounded=0;entryX=0;entryY=0.5;entryDx=0;entryDy=0;exitX=1;exitY=0.5;exitDx=0;exitDy=0;" parent="1" source="YijYOX3hYzCH5UvkE8PR-4" target="rbPHIqEnegWGpRosWhuS-7" edge="1">
          <mxGeometry width="100" relative="1" as="geometry">
            <mxPoint x="-240" y="380" as="sourcePoint" />
            <mxPoint x="-140" y="380" as="targetPoint" />
            <Array as="points" />
          </mxGeometry>
        </mxCell>
        <mxCell id="YijYOX3hYzCH5UvkE8PR-6" value="" style="edgeStyle=none;orthogonalLoop=1;jettySize=auto;html=1;endArrow=classic;startArrow=classic;endSize=8;startSize=8;rounded=0;entryX=0;entryY=0.25;entryDx=0;entryDy=0;exitX=1.009;exitY=0.401;exitDx=0;exitDy=0;exitPerimeter=0;" parent="1" source="YijYOX3hYzCH5UvkE8PR-4" target="rbPHIqEnegWGpRosWhuS-5" edge="1">
          <mxGeometry width="100" relative="1" as="geometry">
            <mxPoint x="-180" y="430" as="sourcePoint" />
            <mxPoint x="-80" y="430" as="targetPoint" />
            <Array as="points" />
          </mxGeometry>
        </mxCell>
        <mxCell id="YijYOX3hYzCH5UvkE8PR-9" value="Usuarios == ADM podem fazer e ver tudo!" style="shape=process;whiteSpace=wrap;html=1;backgroundOutline=1;" parent="1" vertex="1">
          <mxGeometry x="269" y="240" width="290" height="60" as="geometry" />
        </mxCell>
        <mxCell id="YijYOX3hYzCH5UvkE8PR-11" value="" style="edgeStyle=none;orthogonalLoop=1;jettySize=auto;html=1;endArrow=classic;startArrow=classic;endSize=8;startSize=8;rounded=0;exitX=0.418;exitY=1.003;exitDx=0;exitDy=0;exitPerimeter=0;entryX=0.336;entryY=0.37;entryDx=0;entryDy=0;entryPerimeter=0;" parent="1" source="YijYOX3hYzCH5UvkE8PR-9" target="rbPHIqEnegWGpRosWhuS-4" edge="1">
          <mxGeometry width="100" relative="1" as="geometry">
            <mxPoint x="320" y="330" as="sourcePoint" />
            <mxPoint x="399" y="370" as="targetPoint" />
            <Array as="points" />
          </mxGeometry>
        </mxCell>
        <mxCell id="YijYOX3hYzCH5UvkE8PR-12" value="Regra de Segurança:&lt;div&gt;Apenas usuários autenticados podem acessar os endpoints.&lt;/div&gt;" style="shape=document;whiteSpace=wrap;html=1;boundedLbl=1;" parent="1" vertex="1">
          <mxGeometry x="-190" y="120" width="230" height="90" as="geometry" />
        </mxCell>
        <mxCell id="813tNDDu_2qmJexglGz0-2" value="Regra de negocio das variáveis de imposto:&lt;div&gt;* long id: único e sendo gerado a partir do 4.&lt;/div&gt;&lt;div&gt;*&lt;span style=&quot;background-color: transparent; color: light-dark(rgb(0, 0, 0), rgb(255, 255, 255));&quot;&gt;&amp;nbsp;String&amp;nbsp;&lt;/span&gt;&lt;span style=&quot;background-color: transparent;&quot;&gt;name: único tendo min de 1 a 20 caracteres&lt;/span&gt;&lt;/div&gt;&lt;div&gt;&lt;span style=&quot;background-color: transparent;&quot;&gt;* String descrption: único min 10 á 100 caracteres&lt;/span&gt;&lt;/div&gt;&lt;div&gt;(as outras variavei estou pensando na logica)&lt;/div&gt;" style="shape=hexagon;perimeter=hexagonPerimeter2;whiteSpace=wrap;html=1;fixedSize=1;" parent="1" vertex="1">
          <mxGeometry x="250" y="681" width="300" height="110" as="geometry" />
        </mxCell>
      </root>
    </mxGraphModel>
  </diagram>
  <diagram id="08d-JYWhBxhYUhCaaYSG" name="Endpoints de impostos e seus Json e links para as requisições">
    <mxGraphModel dx="2491" dy="588" grid="1" gridSize="10" guides="1" tooltips="1" connect="1" arrows="1" fold="1" page="1" pageScale="1" pageWidth="827" pageHeight="1169" math="0" shadow="0">
      <root>
        <mxCell id="0" />
        <mxCell id="1" parent="0" />
        <mxCell id="8MJL6hcB_jhk1sZNT8xJ-1" value="Endpoints de Impostos e seus Json e links para as requisições&amp;nbsp; de Impostos" style="shape=tape;whiteSpace=wrap;html=1;" parent="1" vertex="1">
          <mxGeometry x="-110" y="10" width="466" height="80" as="geometry" />
        </mxCell>
        <mxCell id="6i7wk0UPwE9rVXbTgw17-1" value="Listar todos os tipos de impostos disponíveis.&lt;div&gt;(GET /tipos)- -&amp;gt;&amp;nbsp;Resposta (200):&lt;/div&gt;" style="whiteSpace=wrap;html=1;" parent="1" vertex="1">
          <mxGeometry x="-790" y="440" width="250" height="60" as="geometry" />
        </mxCell>
        <mxCell id="-slpts1ggDoiDcfdw30U-1" value="Obter detalhes de um tipo de imposto específico pelo ID.&lt;div&gt;&lt;br&gt;&lt;/div&gt;" style="whiteSpace=wrap;html=1;" parent="1" vertex="1">
          <mxGeometry x="-490" y="440" width="310" height="60" as="geometry" />
        </mxCell>
        <mxCell id="8wihX_Zw31_P2R55SVDD-1" value="Cadastrar novos tipos de impostos (nome, descrição e alíquota).&lt;div&gt;(POST /tipos) --&amp;gt;&amp;nbsp;restrito ao papel de ADMIN.&lt;/div&gt;&lt;div&gt;Resposta (201):&lt;/div&gt;" style="whiteSpace=wrap;html=1;" parent="1" vertex="1">
          <mxGeometry x="-90" y="440" width="350" height="60" as="geometry" />
        </mxCell>
        <mxCell id="9RoJom2z7DTQqJsQtxxn-1" value="Calcular o valor do imposto com base no tipo de imposto (identificado pelo ID) e no valor base fornecido." style="whiteSpace=wrap;html=1;" parent="1" vertex="1">
          <mxGeometry x="563" y="440" width="264" height="60" as="geometry" />
        </mxCell>
        <mxCell id="mb8kbM6TeNH6ofwH7m_D-1" value="Excluir um tipo de imposto pelo ID." style="whiteSpace=wrap;html=1;" parent="1" vertex="1">
          <mxGeometry x="340" y="440" width="210" height="60" as="geometry" />
        </mxCell>
        <mxCell id="mb8kbM6TeNH6ofwH7m_D-2" value="Link:&amp;nbsp;http://localhost:8080/impostos/crate" style="rounded=1;whiteSpace=wrap;html=1;" parent="1" vertex="1">
          <mxGeometry x="-40" y="160" width="220" height="60" as="geometry" />
        </mxCell>
        <mxCell id="mb8kbM6TeNH6ofwH7m_D-5" value="" style="shape=image;verticalLabelPosition=bottom;labelBackgroundColor=default;verticalAlign=top;aspect=fixed;imageAspect=0;image=data:image/png,iVBORw0KGgoAAAANSUhEUgAABKwAAADACAYAAAAp3vt7AAAAAXNSR0IArs4c6QAAAARnQU1BAACxjwv8YQUAAAAJcEhZcwAAEnQAABJ0Ad5mH3gAAFUYSURBVHhe7d17fBTV/f/xlwmbSzeEBAMBTAyECFEMEkEKfFMoQioIFRG8IhRawaJQRepXatFWQYv1i2gRqaKFiinlJqIo9BuQLzS/wBdB5KbhFsSESwiSsGS/uSyJvz9mNtlMNiE3wgLv5+Oxj8dmzkxmd/acM2c+c+aca2JiYn5ARERERERERETER/hZF4iIiIiIiIiIiFxK1/zsZz9TDysREREREREREfEZ1+iRQBERERERERER8SV6JFBERERERERERHyKAlYiIiIiIiIiIuJTFLASERERERERERGfooCViIiIiIiIiIj4FAWsRERERERERETEpyhgJSIiIiIiIiIiPkUBKxERERERERER8SnXxMTE/GBdeHHY6TXqSR68PYGoMBsARz4ZwW8XWdcTEREREREREZGrWRP1sLIz4Hd/4el7bjWCVaUuXEUuSlzW9URERERERERE5GrXND2srn+EN+YMJgrI//Jdpr60lnzrOiIiIiIiIiIiIk3Ww+qn8UQBOL5kkYJVIiIiIiIiIiJSg6YJWLn38n02/7YkiYiIiIiIiIiIeGqagJWIiIiIiIiIiEgtKWAlIiIiIiIiIiI+RQErERERERERERHxKU0SsOrVOtx4U2ZNERERERERERERqeyiB6zsN49g0I1hgIsjX2+wJouIiIiIiIiIiFRyTUxMzA/WhQ33EC+n3EUsNmxBxpL8XX/nzy9+zH7rqiIiIiIiIiIiIh4uUg8rGwFBFcEqV1E+ecdOkW1dTURERERERERExOIi9bAy2aPodecjjH8ggTBcHPnkt/x2kcJWIiIiIiIiIiJSvYvUw8rkzGbr8j/yjy+dgI0ONw2wriEiIiIiIiIiIlLJxQ1YmTYcO2W8aZK9iYiIiIiIiIjI5UwhJBERERERERER8SkKWImIiIiIiIiIiE9RwEpERERERERERHyKAlYiIiIiIiIiIuJTmjZgdW0UmidQRERERERERERq0jQBq53ZnAIITWDkfw4mzJouIiIiIiIiIiJiuiYmJuYH68LGZ2fA7/7CYz3MUFWpC5cLMj97gGdTrOuKiIiIiIiIiMjVrGl6WOFkw5+m8vq/9nPK4QJ/G7YgGwE263oiIiIiIiIiInK1a6IeViIiIiIiIiIiIrXTRD2sREREREREREREakcBKxERERERERER8SkKWImIiIiIiIiIiE9RwEpERERERERERHyKAlYiIiIiIiIiIuJTFLASERERERERERGfooCViIiIiIiIiIj4FAWsRERERERERETEpyhgJSIiIiIiIiIiPkUBKxERERERERER8SkKWImIiIiIiIiIiE9RwEpERERERERERHzKNTExMT9YF17OEt8+wtA4gEOsGZDMTobRP+V1ktp4Lrt6XVbHJyGJVcnRAGSmLmHqHkjok8yLvSIqLbtqRXbhg1FdsQPOnZ/y8EYHdOrJsqEdsXkuExEREREREbnMXAUBq8rLVg1IZq91o6vIZXV8vASsKi1bt4SpX1u2IZrZTyURa11cRRarX0tjkXWxKaxVNJP6dqFru1BsNn9joauI/OMH2JSewfITpTgBCGLKmOH0jQDIY+uidbxyptK/guhEPrg3HjtAVjoPLz9qbmvyC2Jwjxu586b2RIYFYXP3e3QV4Tp3hqyM3Uzdmue5hcFbwMpjWf72Txi3ucC6lYiIiIiIiIjPu+IeCcw9Y/YoKSmm0Jp49hSnrcuuMpfV8TntMAM7JbiKrYkO8r63LmsMAYy6cwgLRyfRPSa8IlgFYAsiLKYrwx7szb0e69sD3O/Dib8pqDzFbVRirBGsAmgRQnfPRHs0sx8dzoSkeKJaegSrMPZna9mO2OtCPBZ6yC3AHcYqKC6xJMKZPAWrRERERERE5PJ0xQWszpeabwrPkm++zSuoEu24al1Wx6fM/WGLKDhrvnU4cXmsUlUWU19bwnD3K2W3GfRysCPFY7nX3lUBjB3xc0bGhxp/OrLYkfY5895dxfPvrmLemm3syDyNs8y6nakMwrrcyGDPZX7R3BobAIVFXj53KM/cn0RsMFCYw441nzB1bsVnHPf2Kl5ZtYnNB6oJPJWV4Q5TOc8VGW/yi6hmbREREREREZHLxhUXsPKmqNAMyBQWY17Wi4fL6vgUlZhBmhKcVbqINYy9UzfujDG6SzkPbGLau2nM3JbDekcRexxFrD9wmJkfpfLwX9JYbt343D52ZAH2KHobTywCEJUYS6wf5GR+Wx5cKhfTke5hGI8SLv2cmQcKyPSIauU7i9h65Dhz9nh5HLA6xSU19EoTERERERERuTxccQGrk8dOGW8KHOU9iMoVnKq6zBzD6bkNRxg9EQgZQ483tjHlv41lz/13BhPf/RtxN1q3MoX0IWr03xi6cBdPrzW32XCE59Ya28V384hemNrM3MVzG3YxODmaiKdSy/c18YXxgLdlXrQyP6fHPn/34TaGPz2VsGqeIKOex6eyzjw0831WrlzJyoUv81Ana3ojynGQA0ABeVU+WCF5jTqeeBCT+hiDlePYx6LPjrPfuopbGR5jULUgPBT4oZQ93x4HQoi/yRgUHoIYldAOyo7z5VcFRs+nYDut3ZuG2o39UUCOddyrWjlrHoMinFWOhUevNBEREREREZHLzBU36Hp9uAcd/zZ1NeeThhEXbF0DOJPOwnGjyLY8b9Vm5i7G9zYfIfPKwfZXh7J2XVb5EmMb2L5qL3HD+xBWnpLFxsW53Db6VipiTg62z7qFtanlCyBpPuN+P4goc+ykosJi8A8kyD2WUm46Cx+p+lkbxb0v888HOpuBFnDuepcxL661rORDygchd7Aj5VNmGhGwqkJv4K+P9CASyN60jMk73I8jXog5yLtjN3MWF3DvxD5ElR5mxbxtpITFs3BsImHH0pm8tIwpTyUR6znYe/mMfiVkb/iEybuq9MESERERERERuSpdcT2sGqJ9shGsKti/moXj+jJjwFAWrMsyHpNr2Yf+o6v2lqK0mPwj6WxcNJs54/oyY0AHZgwYypzX1pFdAhBKj9HPegSl3ELpMbwPYWfSWfzAL9l4DCCa3vffSkilZaG0SehTsVnIVIY+bQSrCr5+n7nDOvDq0HheHdyBP71k7rNVH+59YWrFNo3J4X4kz+ByVhcBusxEtSISgNNkHqxtsMqi+ChbM0vAFk1CJxjc/QbCKGH/rqNkW9cFOJTBbgdAAFED7uaDu2Po644EioiIiIiIiFzFFLCyyN/yMnMee5Ls77KAfZx8dR7bc420iOsHWVfn5B96MveRUaQtfpOC79y9qPZR8OlEFi7dx3mANnF0qLyZqZidS6fxbe5GDn1nPNMVFFB1WUjLLuVbRDxxP4khQO5GFk/+A/kevajOf16xz5Bug4z1Gtu/XuWtz46QX+Qi//BaFvz1S+sal6VeEWYvuTJn3R41DA2qmAEQSMnIwkUAnbsk0js2BFxZbM/wWMFTmYM5y9LJLATwxx7bhymP38fCEV0Y29a/0v8VERERERERuZooYOXh/JHVLJy+wLJ0KfnmWEAhLTta0i7g2NmaZ2z7bh3rV1Q8KljtsnLDSLipFQDZ297ltDUZYMUhszdPa9okWRMbg5Ot7/2WX416gF/957tsrRjM6bIW4O9vvCk4S6Y1sSbBAR6PbwIHDpLhBKLjSbCDM+MgKzzTaUGU0ZULAKfjKFPfXkXKtizyzwN+/oTFdGXYg/fxwSNJPBNXOSAmIiIiIiIicjVQwMpDwcl9NQeYqtNqDPG/X8mDC3fx9JqMitcTnuNTVZV/bF+VWfm8LavQmzZtjHdRyX+rvC/365+DaA9AKBHeu3VJTUJaEGtdVid5bMksMEuWg4zd7hn+SqGs8prlyopYkZbGuL8sY+aqbezPNXNAaDS97rqLN/uGKmglIiIiIiIiVxUFrBooZOwapvzzBe69/Vbirg8lKDjQ42Vdu+Gaud8EeO6n8kvqbscZsxudnw17XQ6hn9kzy8PaHQeN2RbPHGZt+RBfBeRdMBpayo4jh5m2eBXjFqeTeQ7An7Ae/XgmxrquiIiIiIiIyJVLAauG6PA6947uQghQdDKd5X8YZQ66br5mpRuBi4vg2xUe+6nmtXi+dSupjjPfiQuACKLr0jMtwuz9lOdgs3vZmQzGvbaE4Ysy2FFpZYAAAoKsy6rKzz3K1Pc2sd8FEEJ8gsdzhCIiIiIiIiJXOAWsGiBo+K1EAZTsY+2jo8hIS7eu0sgOc9rsCBR23XhrojTE0eNkugAC6JzYkc7W9EYThN0c3/2Cyo6Tcdx4awsMsKaKiIiIiIiIXLEUsGqAsJYtjDelxRRYH/cKGcbNd91c4xhWdbeAb44UAxDW/T4Sb7SmNwU7vX71X7yX8j7zZz5CrytmcKUcNmWYP2LbnkwbEF79b+dH04wp5RdBbGvjrdP9yGIjs9/+JG8s/Cfvz3+ZR37cJN9KRERERERE5IIUsGqAk8dOGW+Cu9D/6fEEhQAhfYiasJLx/3yd4TfVtitN7X27It2YHTAgjqGvbmbohEmEGBMHQkgfQoa8QP8/b2byW7Mqb9hY7niax+7sQFiQndY3Dmb8r2+1rnHZWrthG/uNeCBhtwxi4S+TmJ4YQa/QIBJCgxjYqSPT707mg98kca+5TULz+g9UNqp/EtN7RjIwNIhYm0eCLYBeHToy+5e3kxAMlJ1mxy6HxwqNJYHx9/6EqFAb9tadGfz40wy2riIiIiIiIiJyCShg1RCLl7H9DEAgUYOe5enVR3hudQrj7r+VNsFQdCTLCC41pi2/ZPGKQ8ZMgsHRJN4/lSn/PMJzG4x9T3lqDEndo6vvHdRQoQF4PpxmD43y+MsXRDP7qQdZ5X6N6mr2hgql+yiP5U8lMda6aVkOMxZvYv858++waLr3T+aZR4bz4iPDeXxoT7rHRmD3KDXhtX5Uz8Eps5NUy/AQAGwto+medDuPPzKc2ZM9PtvkETwzvCexof5Qlseejzcx50zl/9Y4MsnKN0buAsAezc19PNNFRERERERELg0FrBqiYAFrH/sDa/c7KCr1WHzyEGnvPcmrj6RjfVKwMRTMT+bVqQtI259LQaFHQmkxBSf3kbboD/zpsWkeCY1o+d/5+Bun8d6xn49TPraucVlzOo4z7b1lzNuYQfaZIlxlHonFDnIyd7N6yRaWeyyurRLzf9n8jWK350AGmSfycBVa9lNWguvcaTJ3pjFn3jqezyzxSGxMTlbOXG4O7C4iIiIiIiLiO66JiYn5wbpQRK4ev/ivldzVAXDt5x8PPMtK6woiIiIiIiIiTUw9rESuWmHceu8f6dvB+OvU/65QsEpERERERER8gnpYiVx1HuLllLuItdmw+RtLnN+s5KXp/2C/dVURERERERGRS0A9rESuOjYCgmzYcJF/bA9r5z3BRAWrRERERERExIeoh5WIiIiIiIiIiPgU9bASERERERERERGfooCViIiIiIiIiIj4FAWsRERERERERETEpyhgJSIiIiIiIiIiPkUBKxERERERERER8SkKWImIiIiIiIiIiE9RwEpERERERERERHyKAlYiIiIiIiIiIuJTFLASERERERERERGfooCViIiIiIiIiIj4FAWsRERERERERETEpyhgJXXXagzxk14n/vYu1hQf1IU2o1+nx+gxNLMmiYiIyFXJHhrO2MR2DA61psjlx5++nWKY0CmEMGuSiIgPS4hux4Qu4SQoKlOta2JiYn6wLrycJb59hKFxAIdYMyCZnQyjf8rrJLXxXFY37v+Zv+Vl5k5fYE2+ykxi6OqpJIYAONg66xZSU63r+I72f85gdPdAAPLTXmbuH3zv97sYefaiiezCB6O6YgecOz/l4Y0O6NSTZUM7YvNcJtKIxo54kGExyl/SEAEMS+rB4BsjaUkBWYcyWJuexfpisLe9gec6nmZWWh751s2kZglJrEqOti6Fo2kMX5llXeo7AmOYO7EPUX5A8VFWv5vOomLrSlcZvyBGDRrAyPhQoIScralMTXfgtK7ngwYn/5wJCSEA5G//lHGbr5TzRCjTHxlC9ypBVQc7Uj5lZo51+aXXOTaeCf/RkegQOHPiW7b+bwbLT5Ti9AtlyqB2ZKRmsNZl3cr3qN1x5ejbfwhTEkN98rwU1b0fc/u1A8CVuYmnPjpOtnWlS83jPJ+ZuoSpeyChTzIv9oqotOxiugpieavJL6j46zKoI31bhy60MtoEQCht4ionN7qesxi6cBdP/zOFNta0C+pDmzZGsAogrE3HSqm+6zLLs2edlJhvXaVllkSAaGY/9SCrLvhKYqx106tM94RE5o4dzsK+VVqncrXwC2Jwzx78dfyIirIxeQh/vbOjeoLUmz9j7/45Y3vGENk8CFvzCGITk3h84n0smzicD+7vQedbbuTuitOF1JarCFehx8vbKeAiaVB92aYlke4WcGA4UeqWA2VFpHz2Kc+vO4izLIDIXsnM7hOK3breRRLWKprpIwaxbPJ9HnXfcBaO6MLYtv41fA5/YiPKG6aEtWpRKfXyVobTs3wVl1pX8ClRN/Vhxt2JxLYKxRYcSmRsV4Y9eB8fPD6cZZOG0De+CwNv8LduJjUJvYG/usvD2Hi6W9PNgK27zMy9xZoqvqx7RMvy97aIcGIrpfquPecKK/5ogmrpigtY5Z4xo+AlxXgcSsPZU5y2LpO6ObKYLV8Zx/h8bjobF1tXaGTdu5N4fShBAdaE2kjnq9QvyS8FSnPZumqedQWfcFnl2dwC8sy3BcXuMFWFM3kekTaps4RO8US1DMKm9tzVyd6OWb8azoSkG4hs7lHp2UKJjO/JhF8OYnq0MkfdlZKRnUP+gU08//oSHn53HeszTuPEH1twEBQeZ/OH6mFTLxnbuW/+qvLXZ01487pB9eXRw2zJKQJKcWbuZrkP9lS5VPZ8vZ1H//Y5e874E9lrEG/2vdhBqwBG3TmEhaOT6B4Tjs3zB7UFERbTlWEP9uZez00qKWX1jgycZcD502xNb8JMeNEVMCelonzdt2KfT/d4yzuVQ87pw6x4dwnDX1/FO2kHyXGWQmAQNgrI3prK8183wdXtlSQ4gPJwbMv2DKyIbxj82tEvviJgG96yHgF8uWRWf7WXnELjhkHm/x5ks3UFX3Da3dO2BFeVdpKDvO+tyxrfFRewOu+uBwvPlnftzyuocnSl3tLJmHoLMwZ04E8PjCLbx+MTRYtHMPdnHZjxs56krvPNRsxllWfLysp7UznPFRlv8ouoORtkMfW1JQx3v1J2mxWfgx0pHstfS2ORdVORq4VfKNPv70fn5kBxDjvWfMLk15cw/LVlzFyz22jQ+IXT/e7eTLi4V49XpK3b0xi35jh7ysDpyGPeZ6k8/LpZ97y9iTknrFvIlc3BnJRVDH9tGQ9/lMV+a/JVzunI4flFyxj+2jLGbb6YjwUGMHbEz83HEAFHFjvSPmfeu6t4/t1VzFuzjR2Zp41gVA2yD+w0yvNfUnlFZfmScZ4+zOT3t5HiMC7A127bzq/fXmbUs3/5hMmXySOmPqkMIJyE7uGVFtu7xNLZBq5Cs00ul5ecg/x6vhHgnbqnakcAn1DmvlAtouCs+dbhbNIngK64gJU3RYXmxX9hMSrOcjm4rPJscUkNkXcRqY3uvX5M9zCgLI8dH37OzAMFZJcBlLLjwD5+/f42csoAWzR9+1RusIqIXI7snbpxZ4zRm9R5YBPT3k1j5rYc1juK2OMoYv2Bw8z8KJWH/5LGcuvGIlcR5759ZJaBPbY9g8uX+jPqpmjgOBmZPhrskCtTUYnZgaEEZ5XHgxrfFTfoOhNTeW5kHBxbx6tjJlIEtJm5i/G9Q+HQUmY8Os26RYVuz9J/wt1069CKEPfTGCXFnPcPpJl/TYOud6HNE6/w835xtGlhDoJR4uDkgXRSF77Mt19V37On2e2zSH5oMDdfV/mxt6JCB/nbFrDgxTc9V6+s21SSxt3PbZ0qPu/5QgfZX60l9Y1pnMytvHr5cdi/lBmPTaPZ7a/z81/1J75NKM2A8wVZfLV0Nmv/sbryhoxn8IfP0qPKsAAOts+6hbXVDro+i9Eb7qe9e+Dwbs/Sf9L99Lo+lGb+QKmD7G1LWT79ZY8eOtXtqxpeftPy72lR/e/nKZqgQVMZPLo/8a3MzwkUncnim7R3WffG+5y3bpKcwuRpfQg7m86Ce0ZRcP/fGD6yD+1bGnnhfEEuGalvsurN961bGhqSZwHozEMzf8+IG+3g2M/KPz3LPw5Y12ks7gFAi9izchXPH8UcoyqJ2NoOAlo+cHvN6xuDJMKOlE9ZH53EpKRo7JSS/+U6Jm12kNCj6rLyO3fufTh2M+fdfexuFcO0QV3pfG2IEaZ35ZG5OY3ndxV4v9vn58/AWxIZ2SOm4tGs80Xk537LlvW7eSe3+i7t9tBwxib1oHeHcOyB7kcbSnEVunAe+19e+/g45WMTegxiXxvVDWwYFhbJowMS6X5dOLZmGPs7l0fWN7tZlJ7Dngvcna6PsFbRTOrbha7tQise4SgrxVXs5MyedH6d5n541MIWxMgf92DILe0Icx8fl4OcrMOs/zyDFV7GNq00+OmmEkb28di+rBTniX0sX7OP1VV+THfezGPr++t45UyQsW1iO8Js/lBWQv6321n46VE2V3OrKCEunglJNxIVFmTknfNF5B87wKbNGSyqIR/UTcXAuq5Dmxj38XGv+bJ8YGHXYVLmbmOFudx9fDJTlzB1n/U71nR83Pzpm5jIQ5753eUg53AGq9MOs9bLb1Ked8uOsvr1dBbZQpiQ3Ju+cRHYjRMK2Xu28c6mqvnPHhjK4Ns60i+uPZFhQdj8MMuIg5w9O3nngnnWn75d4rn3tk4Vv0tZCc7vj7Llf/ayKKvI6/FrSDmpbz6odzmpjwb8JgC41+8Yjt3mX358MndtJ2V7nvdtLNx5sTaD29Y5HzS4vnTXB1ZZrK6uh2/LeBaOTSQMyN60jMk7vP/WUT36MbdvOyg7ztr5m3jH4+ZNWFgE9yV24ta4SCLt7vxaisuZR+b2LczaWVD9YP9+QQzucTPDbomu2BZz7LBzx/jsw20s8lY+66nOv0mDBPHM2OH0agk49jHvb7tZX4f/XT6QssUFB8luaDnB83extBG81gkXaiNV5Muqedailu0ngz/dO0Qx+JZOxF/n0R45X4QzL4vN63bW2JbBsz1TXicAxXlkf72P5WlZVc+bfv4MjLuBvt3bEx/hUee5isg//g2fpno/x7tFtY1h0sCbib021Mh7ZaW48nPI2LWD12oqJw1gD41k0u1dSYj2+I6uIlz+Rv6vNj81Qn1ZK+aA186dqWxunczg6zza3+766Vg6c7I6MaVXBK4Dn3PfGmvGaNpzfLk6lRNDg+pLWwgTftqd3p0iK9qX54twEWSc86s7L9Wrzd+A9mUDJitp0PGp9/nE/V2Ps37eJuYVe9ZFNZw/G5F/WFjYH60LL2vbF7P5/TfYvOrT8sBCwed/NZatWW9ZuULIxFSemJJMbISdAM/xEPyb4Wf+oEXZ/2bb5196JAIhY+j19pvc27MtIUHNOF9YTMn5UpoF2QlpHcctA4cSmLuOzENVc0DIxFQm/7ov14cbATFPzWyBhJzPquYzRxPx1Boen5TMDa0rf14/WyBh0TfT8br/q/JZQ26fSPfoQMg/TOYtLzL+F7fSLiSwPL/6BbSg3a39ifxhNV/v9vy83bnh/p/QLshjEQDFHE/7K4cyrcvdBnLLL24mjGY4o4cy5NeDiAsPLD+e+AUSGt2dxP9oy+41681IbXX7qsaZfVWOUfn3tPD6+1XSn7g/L+DRkbfSOsTjcwLNglvQtnN/brvjFr7779U4PG9kdBzBj5OiCSrO5dRNv2X08C6EBTcrT/YLsNP6xj7E2Pexe/u3Hhua6plny907ld/3b4s/QGAEMa3OsWrTIetajaSYzV/uZemWDDa6u4Xi4L+37GXploNs9naVaBXSmnu6RhJAMSf2VL9NTIdO9G4LJ3KDubN/HPZrgGv8CGoXQuj3LRmR3NFjWRtiMj3+l3sfthIC/OJ4ZMiNtLYHwDVmun8w4bGduT3oO9Z/W1y5W6s9ghcfGsLQmyIIKQ84AX7NCGoewQ233ED/a46xMcuyHWBv24U3R/8HN7X6EQHNPDIQfvjbmhHUzMFXX+Zy1L24/FjUTl7mXv77VOVlvXok8fJd3YgJD8a/fJd++Af+iPDrOtC/y49otv8Ye6wftgE6J/RhzrCuRIUH41+xU7jGD39bICHnT7L0m6p1nj2iI6+NHkhS+xYEeR4f/0BCwtvStVsHEvO/Zf3pyo2DbjclEB8GrlOnuaHvAO6MC6vY/ho/AkIj6ZYQRvDX3/FVpe/Zgjt6X084LnKOOLlzxCD6x7YgyP2Zr/EnKDya3h2LObTrDJWfJAlg2B3JTPlJB0KDmxmNnpLz+NuCCAqPJD6hIz2dmfz3KW8NmToKvZ6HercjhBIOpW9jbTXjARwqtTPipgj8/Zvh8sjv7uNzTVExvfsPsHzHmo4P4BfC4/cNZVTX1kZ+Ly7C5SrDP/BHhERcR/duUbQ/eoj/Z33u1513rznHkW8DGf9wf7q1+REBFScUQtt2IKllLp8d8Ow6Hsoz44ZwR2wEocHN8HeXSfzwtwUTel0H+sf/wPe7csn0djvNFs70MUO5J6Gt8bu4t7/GnwD7tcR2CcF/y3d8Zdms/uWk/vmgvuWk3ur9m5hl8xe3073Njwi45gdcRSWU4Y8tOISI6+Po3+kHvt9dzW/iwZ0XOfvdBb5bPfJBg+tLd31g5WC/lzwDQGEeUe27ENscQgOd/L+9eVT9VkFM/FlPooLBdfhLZnx9zuPYRvPSY/3p2TaMkEDP/GrkvYgOnRnS7iy7v3FQpdj7hfLMmCEM6xxReVuMtql/cDOc31R/Dq27evwmDRHagdH/0Y4QIHvr/zDveN3+qdFGqNrWc508yIff1tDduwHlBHdZGTOQ/h2vrdpGCIskvkMpJzzP8+X5rro2T0W+rJpnLWrZfgIg4T94a8jNtAu3tEf8mhFgv5YbbrmBngWHvdZdAAm39OG1e3pwQ6sfEeBZfzULJrTt9XQN+K7Kce770zv5Tb/2RDa31Hn+zQgKa0vXblHccPQQm63nEwIYlpzMswM6EWEPrMh71/jhH9ycyA6dGRJbTN6+M42T90ydE/rwxohEYlpavqN/Rf73lp8aq76slcjreaBjC1wnM5h/IoQ724fTMuAMn+0/R9fuPfjZdcFk79zCXwvb8EDHFvgXHKtc9zb5Od5Q93JCg+pLe9suvDOuLwltmlduX/o1qzjnezsv1bvN34D2pfmbVuHt81VS/+PTsPOJ+zrvKF+4qwtnLh9u2cvS6s6djezK62FVH+4eMkDRkY2sWvQuh9LSgS6E9BvETydOIrGVtx460bSfncroboFQsI9Vf5jIXndvqlZjSPrzs/S/PhAKvmTxqBF861kZhLzAvcvHEB8ABftXs/yNBWTv32ekXT+IsITexAV/zfYVSz02Mo1ew9NjuxAEcPYQa997ma8+3ch5ogm6eRg3jrmPbgWLWfhi5d5E5b12SgF/oDCL7Uvnkbp4Kee7PcvQ348nsSWVevp4VX68atvDyq2Yk1uWsvyNP5BfOIz4F17k3m6hQDE734hnzceVNja4ex+ZvZdOWtMvqKLHVtXfr7KQpzYzZYgR8T69dymfzJ5H9ndZcP14EqeOZ+jNrQAo+OpN5kydXbGhR/4BoCSX7f+YXfW41vs7XMAdf+T9CQnld53z01/iV7NrCsxdYrW8Q1h+97TMuPv6zuIMYu8bwcDIElzFAdgKPZdBzuZl/Hq7WZNa78SXOcjc9G/m7HKQ7R/C4/fcwcDrArzcDQ/g8QdHMLCt8WjW/tR03vzGQXYZRLWNZtIdvenc0h8oYM/KT8weZm4Vd4tdObtZtjaDtWdKjZ4etgASwkLp3qqE9V87qp2ytq7TKNtjEnl7RDx2wJW1k5TUg6zOLwVbEMN+3INRPaKNu5QntjFtyeHGGafFrx2zHu9HZxs4M9NZlJrNeqdx3O2BAcRGhNM74CzvHLHUIH4RvDg+mQS7UfdsXredhUeKyMef7h1uYOygRKKCgbLjrF+wiXkeJ83yXhtlgJ95fD/NYEV+KQlxiTw1NJ4wP3DuWcfDqZ49Vjx6VJQBfqU4M/+XRWuPsr7Yn749k5iU1A4bnj0GDZ179GNW33ZQnMPWjzfxSpaZt/yCGJn8U0Z1Cff6Weul/G6bx90rb/ximPtkH6Isd+LLj4+p9scHht3xc8Z2CYFzh1mx1Bx7BONOZXk5cWawaMFOVnvt7VIKZf5AETm70lmQlsOOUo9jVOU7hfLMmJ8QlZXBpgNZbD1RYjz6aAtgYGJvJiS1wwbkpK3i19usZ6EgpowZTt8IY3yUnF3pLErPYWuxsX2vqGju7X8te/62rdLdvoaUk3rng/qWk4ao72/iUTadBzbxymfGWF8AYa06MuO+nkQFgnNfKo/+67TX3mtute9h1ZB8YKhrfVlFebmr+Q5xxbTjp9n8bipzrLsq74VVtR6BaGY/Go9r3z627D/NptwS8gF7YAiDf5pk/h4l7P9oJdMsN/+6Jw1ies9wY0y71G0sOuR+TNif2NBgEqJDcR46zvrq6os6a/hvUic39WHVoJjqj2udVPRSvWB+qG85AfCLZNbE2+kc6G5XpDNvbx6ZLqNc947rwrCbC1m+NMNj8ORL1MMqoScfdCtjx5ffsuXbPLaa9U9Uy0gm3H07CWFA8UFS5m0v763rZu/Uk4VDO2IDcBxm7dqvWHbMyLtRzcMZ2Ksr3Qt3Mjmt8nHu2zeZca2Os33PcdYfzWN/MUZ+va49U+426hFytvN8ysGKnuae9Syl5GdsIWVDFuuLjR5/9w7ow7B4I8xcmzqo1iK7sPDBroT5meeFDQdZf6YUJ/7EtgrnocHJdI/wkp8asb6slfIeVp/y8KYQ47zCYVbMO0jn8YNICDjMinnbSOli1meWurfpz/H1LSfUv74MbMfsR/oRGwicOcjq1N185JFfh/3spwyMCapybBrW5q9/+9Kq9ufNeh6fS3I+aVweIcirVR96PWQEG84fWc38R35pBqsA9lGwaTbHynuSWPR+gcHdAoFc0mYNrQhWAeS+T9rkpWSUACG38pPRlq5/veNoEwCQyxdzn6wIVgF8t478T//gPVjFJIaONINVZ9JZOCaZ7Z9uNHvmZFG09012/mffKsGqSvyBM1+y5Om+rF281Nj2q5dZs8n8/NfFEWfZpOEc7HxnIgum/4H8XKBgNRlTXyYtFyCQhORnrRs0sWdJNrtn5m97mflPTDOCVQDfLWDnEyNYuM2o5UO6DSKxYkKOykoOseapnpWP66f7jPctoomqbruG+NervPXZEfKLXOQfXsuCv/pwsKo+/ArYs2E3a10l7DnuAAKwBVqXQUjzah4UKT7O+g8+ZepO4ySEq4B5y7ew32VcVN7a3aM7X2xX+rXFGBB+6Tqm7TO3AbJPZDHt/XXscACEkNAj2vJoSitatwQoIWPLPla4g1UArhL25J5mUQ3BqroLYkKS+yI8neeWZxgX4Rjde1enpfHcxizjjlDbeO6NtGxeX63CibIB5LAl9Wj5RTiAs7iEPcdyvF6EJ/ToagSrXFmsfT+NOUeKzG7Lpew4ksHk99PJNn+T3j2rPuYBxhkrf18qz6XsY4X5Xfcc2smb240gjD3+BkZaNinnV0L25s949KOj5gm5lM3bdrL7HEAQ0TEehdMvknE/bmec+Dd8XhGkwAiUrPjX/7D1zAU+ax1EeTw66qypseAx6UH5XU6LOh2fljcw+MYQII+tKz0asljKiT2evl080irxB/LY8/Gn/HpjDjtc5jFK/cbM6+2I7ei5voNX3v+UyRsPs+KYeUGMUUbWb9vE6kPGN4yMNm4QeIpK6EHvCIASMjcY+9vqPl6uErYeOcxUS7CqQeWkIfmgnuWkcdTtN+neK9Eom2d2MsccmN4tP/cw0zYcxgXYb4zn3mryXd3VPx80teydB41yQARdu1bt/t33lo7GDSvnt2ypclGSxdS3U5mWdpzV5sUFgLO4oCL/EEBUTNV6JCHSuEh3HdntMaYdQCmZjgJW72vsi4um/U16RZjfucxJXg3xpYunbuUEYPCAnuZFeB47ln7K1J3GRThmuV6/byeTq1yEXyJ7tvHw4u3M2Xe6PFgFkH0mh+c/2mnkxcBI4qu0DUKZ0tcMVuXvZt7ftvGOefEPkH0uj0Wpm6oEqwA2b05l3Mp9zDvgDlZh5NdjFfUIkZF0r7RVhFnPgnPXOiZ9ZgSrAJzFDhZ9to55u4x9NV4d5M+En7qDVeZ5obzNVkpm7mmyq4k0NXV9mdA8uOKPsuNsP1ICto7cOqA9sXZwHTlKimegydMlOcc3pJzUr74c3Le7Eaxy7GPe+9tZZMmve85UM75Xg9r8HurSvmyQ+h0fLsn5pHE1QlG6zIXcxw3XAxSzZ92TF5jtrLKw228mAuDYDrZssaYCBe9y5JjxNuL6QZXTDjnMfbXitsdmEVbb8//I/twYgtEraXE9Z+kryWLt8yM49I1l+f6s8sxvsyQ11LernmTN0o2WpUs5eMSoPZu16WIcy0tldB/iAwCy+OIdb8G+LLLfSTcr5zjihlvTMcb0euOX7LQe12Nnzd+6Ba16W9IahZOt7/2WX416gF/957tsreYke9k6tpt3rBcB3pZ55WDHh5uYd9qyuOw4mWZXt0gjygTAyJtijLx/IoNF3mYaKnOw6Kvjxvt2bT0GvgQoNAceDCC+dzyDqz6p0LhCo+kcCVBExrajXntP7d+VQUYhQChRHateaNVL+ayQkfTuH033WlUWQQw0W8WuAxm84y2POo+y/oBxAW+PjiTBmm4GHGb963SV77rjsDnmk60lHaupSJy7Upm23TpmmYPsM8Y7m+fjAHExRuOnMJMtGRWLKxSxI8s4CvaI8OobMbUU29xszJyrfUDT29TVdT0+CfHtifQDThwkxTwOlVQqJ1X3Zyghe+PnPG8d8LUsjxx349ijl/2FZLlnH63CnztvijbK57HtzKntbDoNKScNyQf1KieNpS6/SRB944xMkbP3IDvciz04D+SQA+AXTlSVi9uLo/p8cAmUHWfPUeNYhsW1t1xshzOwk1E28vd9w9pKaRdSRM4567IKeQXGMbB16MozMf4NrmcaqrF/kwB/MxMWnKXakSUuqrqUE4AIescZdbVz3/8y01sb4XJxxom3Kh+A6I4YkzYWsCd1X53GFauJM89ZfsOlkk6xRj3LcbakeZ9FcH1ahlkHRRLfGHfU/aJIuI4azwveNX19GR5Y+SHoFbsycQKxXeKxU0DGLks3u/BQ+ppvL805/mKVk+rqy1C6tzf2l/NV3fJrw9r8FerUvrxoqjs+Bl87n9RVUxxB39a7lfko1ylOrrMm1izqOjPK1KY/k9dk8HSVVyrJ1xurhLS0hJ+PvEzqFrNnyE33M/mfR5i8cCX9R48nqIZAbFjnaKN3VeE+9np7hK42CrPItgZVAFJHMXdAB2YMSGanNa1BHJzebw1WGbK/Mx/W94eKUZ+aXtj1rY39n83i2yPWVNORLzlp9raLuH6YNdXMQzV15ZT6cJ7Kq3IR722Zd2fJ9nYSAjJOm2dad6OZIKJbmrMVncyt9v9nZ5ldvG0tiK50fj9NSprRU8MWmciEx+/jg9F9mJ4YcXEuVtuEY4TacsmsNnh3mkyziLVs6eV5+fooPsyKnWaPnU5JTH/8PhY+mMiUTqFEVXtGaUGkufus49boYYXVx82ZIlqE09maCJSczvPesDyRZzQQ8cc9ZqpVzinvDeFFK5cw/LUllbr892rT0mjEBN7AqInDWeblNaGLWVG3CLFcwNZdXrHZEGweSpQ1sRo57vzroa7Hp3trM3oV2Y3XvHzHZROHM/A6YxV7WHX5p4ick94uQxzMfNc4tt4ecQlrFcmU5D7MHVt5f5MSqms0RxDb2niXczi72vJZRQPKSYPyQb3KSWOpy2/SkigzZh/Z+64q32/ZxOEse7SHmS9DCK8mIFxfdc8Hl0bKTuMikZY3MMyzw3y00csBTrN7d/UBnYToGKbfmcRfx1f+nnd6GXfXbXXadjKLjV4wvUbcxwePJjO7fwzDwqqp5BpJk/8mIS28DITfFOpSToDQcFoHAxSReaARJ0u4mPyCGJzYhVkjkvmgUrnuWe0xT4iOMC5mC7PZUZ8mrS2EkUmJzH5wUOV6ZGQXrxfJCREtzEcPT7Onuh4exblkOwACCItohJtvrULMsexyya7Td7y09SUAWd+S6TSv4B2ZrHd//tKqkZpLco5vhHJSt/qyBeHNAQrIPubRC/qCGtrmr1CX9mVjqNvxMVyq80ljuejNJp8X19oMWBVTWsfeSuUNf/9AgoK9v6yDqVfIInv6UOav2sdJc79h199K0thneXr1ESa/9TptvPS6Cgo2u22UFFU/xtTlKLhFxRhQl0D5ca2lZsHmlZNc/uxBZm+eAOy1Hc0XjPU9emoD7N+TxnMf7SQ7vxTwx94qhu79k5k++T4+uL8LI6s52dVLYECdekLaLHfpGmL9xnW8suEgOc5S8PMnrG08fYcOYe5v7mPh3TH0rfLBArBVWVYDWwA1xO1rEERIdW2uOii/8+/njy04yPurESPse85VzAlc3aN+YPzm5Q3+urTLylmOj/v85BdQ9fu5XzV9nnoJYNTQn7Nw9O30TYghqmVtj2tFHnIW1+HLN6CcNDQf1L2cXAr+FS1Bm5fvFxyELbjx6o4K9c0Hl0jWYTLMR0NizfF0AIbd1N4ok8cOsNzbNYlfKFNGjeDFe/vQPT6ayOaW71lT+XJmMXVRKluPOowxUuwRxCb2Yewv72PVo/2YHhfkNQBQf037m+w4Y94B9LNhr1sT7NIIdp+XSii5DBrg9rY38NeJw5nQvyudYyKw17JMl/focZVQ13BD5/iefPD4zxnVM57YtuGV84/ngNYerD2ILiSkjut71bqiR2xJ1ThPDZq+vgzwnAEKgDxW7zN+mfyMwxWP1X1/tmrQ5FKc4xtSTupTX0aGYnRkKzPqyVpreJu/ydXn+Lg1+fmkcdX01a4OBcXlM7PV26GlzBjQoebXo9OsWwFZnH5zKAuG9eXVP7zJ2i2HOG0GscM6D2P8Wyk1jnnUyG2HS8PfbKUUnq1+Gs4mcL4O1z8ABWc8xhyTy1J5I8BZZA7+WYarNic7P3cLoIA8L5l2f2YGk/+2jHFvryNlm3mxij/267oyanQSYxvrjODlbpo37gCIq6AiKNIYtu7azq/fXsbkRams3ZlFvsu8KI/tw5TRXRhY6exSWquGhN29TaGzbg1lPz9z5rAiCqobc7A+HLuZ85pxh6za17v7vIzDUEen3XfnWhFVwx0yYq41ewudJru624HeXOj4HE2r+r2srxoHAq29qO69GdkpBCghZ+fnvDKv8n7m7PR21V9ZjUE9q8YoJw3IB3UrJ5dWZqqX72V5eestVx+NkQ+aloO1GWaPubj2DANj7LJOQcYYZ7uOer1DP3hAP/pGBkBZAZkb1zF1buXvubraXn8m52leWfkpw+etZN6anezPLTAvNtrR/a4hvJhQpyuuGjX1b+LMd88sFkF0B2uqL/O7DK6ewnnmrh5EBgLnjrJ26UrGVSrLaRd+DPMa/1rPyAlAYAyTBnXEbk6MkrJoGQ977jNld9WAClBSWssGuDmrWcE5b/+ljopLqsxqV1dNVV9GhZmPu3n0qt6Rto7hry1hXJqXiJAtoOpMqE14jq9Q93JSr/qysKROw/lUaJw2f1Oq1/Hx1ITnk8ZWx6x0BTrpHl+oNRH9rInAjbO42Xysz+pErll5tIqmjTWxTrIoSpvN9unJzB88lLkfHzJ6T7XsQ3/LYO0n3Y/QtbiBGy7KeEhNq30Hs6dSblbNs+cFBBmPQl4kp4+5j2s07atrOHXvTfsWAMXkfucemF8uT/50bm0+Y+++y0sBOebz5vY2rap9NCuhQ6TZXd5BdnXd14F8Zx4r0syL1ZX7yC8DAqMZaB2c2YuAgFqcNE65g7ytiPWYIa6ySGLNyunM93UKAdVa9pnTvLMxjXFzVzLTPXh1WFcGVxrA08Eps7qMbld9H/nB0eaAD/kOr2NDVCu6pXGHrews2eZThQ2x+bSZJ0LCiW2Ks+SJHGPAeYKI7VSlqVluVLw5htOZLDbX5dqxmuOTecb8Jx5jXlxc/gzrZAyu6zq0hameg6Zf0NnygZkjY9rV/k5gA8pJY+aD2pWTS8HjuLoHwb7oGpIPqqpVfdkIdnzxjTFQbXAsvTuBvVMUsTbAlcV2r2OcVYzlkr89tdLAw3XmKmH9gQymLf6Eh+evY0c+QACxP76hkcpu4/4mtXL0uHk8Auic2NHrY+A+JSePnDKAEDrWa0zIAAK8bWb36DnbWGLaE2/HHGw7vdKg6RdSXu81b0f3iiE+Lygqob3xuLPrMKuXWCaeqcFWdyAmNIKE6nrahUYS1RygiFO5tQxw1eSsezytECK9NUns0SR4vbC7FPVlHQXbywNWTX+Ob0g5qWd96Sgy81ko4ddaE41eSX07ePutGrfNf/HV8/h4c9HPJ42vgU2wK0DqPoxHc0OJ63d/5bSQ8Qx+8X7aV9MWOvmVGVhq0Z3kif2tyfW0j/w3lrHXPF+EtbH839R95l28VvQYO6uej834iA6z+MlNxtkp++tqBuTKdRjHODiaDhczQFd+XKO5bcJ4ayoQTfuH+hgDwxfsY691DuBLyk6vX/0X76W8z/yZj9Cr0Vs+V6DIeHq3BSgg81DFlf/6LHNwxbbxjG1bvriCXwT3JhitG+ehb1ltTa9G9tHduCfhtLeovtSWD4rYNuLC4yKdPk6WEyCI+J4xXhv7nXvE09lmDKz55Z5GaOTVqJQdO3ez2zycLcM9v2cBu83BqW2d4pngLY/aOzIwzqhssw9867W3gnf+jO0Raw6cmVWnATerdeCEOWhqNP36hTb+xUQVOeWDOtu7dOVxLzu0t+3CwFjz+OzxPtird9Ufn82Zx43ASWg8w5rkzpqdcPd3Ky6pcjFjD23HnXHeGpYADjLMcTRssV2Z4q18etOQcnJR8kFN5eRScLAny5zs4KaujdcDtEYNyQcV6lRfNobibPacwGjYd2rH3Z2MALIz4yDemwTB5Y+QFBdVvbIIi46nl9eL4po5i/OY+YV5Qmm08Z8a5zepmxw2ZZh9I9r2ZNqA8OqHhvCjkcpfQ+Sw3xwTM+yWHnUoK+4JWYJo3cryWJwtnOn39zQfaWpEoXbzUehCCqw/Jv4MTrqBajvzHjUHDSec7v2jvdaZ3pRPHnLeRYH1POwXxKjbYr3/hoePmTOWtaN3kvd6dljveOMYeZ2Jsx5yTps3icKJj7cEVfxCmX5/kjkQvNWlqC/rr+nP8TSgnNS3vswl2xwaNTrOejMrgLHDk+leTcVysdr8F0d9j0/NLs75pKrOD7zMeyn/5L05T3NXJ2vqhSlgxWL2HDJCphH9nmXoQ8OAaIIGvc6DKc/SoyUUFFQTUl2xjO0nAQJpP3I+4/88i6jO7tul0QTdPIn4369k3IepJFbeEu56ncFPv0BU92GEeI5Vdf39xP1+NDebPXmO7HjfIxE4MpuNXxmfJyjufia+n0J8v/7m44HGPhP/vJlxz3sLulwqgQS16VN5UbdnGfonMxh4Jp21b1TTY2ndQbPnVSuSnlpJfJLl/zQWj+Ma1nMq42e+QMT15un8+vH0eGsNo7sFAsV8u+5Nvq289aV1x9M8dmcHwoLstL5xMON/fat1jatYAOGWAQXDWnVk7j1dsQOuzB2849ELOnvnPvY4MWYdued2pncKKR8gOaptDLN/ebsxnXFxFuvTLT2WQtsxJakdw1oFGdP5utkCGNilB/3M7JSdZZnRxcN696DjLROZdEckvbw2mNzySNlhnGxt0X147u4YBtrN72oLYmT/25mRZNwxz9+1k5RqqrE6i45hes9IBoYGGb0LTPbAEIYlJdLVnF0o60jlTtpr07827rrZohn8UB8mXBdgXpz4071TF/46pqcxm03+blbv9B5cCwgOrjxgtV8QI5OTGRYTAGV5bP0f74/l1FnxYdYfMGcFSxzE23d3ZFjLillVwuwhDEvswuwxt/NMI11ppGz4yjg+fu0YOCaJKR2CjOPj50+vTl2YfY8xBTf5u1m+o5GOz9Fv2HIa4wJ8wBD+mhxdkYeAqObhjExKZO4jPRnruV29Ocg2i40trguPtzWOqT0wlLHJt7Pwl/3o3Ny6TYUV6bvNYxRO9/uHMDsxvKKs2QLo1aEjs39p/awNKCcNyQf1LCeXwuov9hrHNTCaYWNu58Uu4RWf2c+fztdFMiW5Hx/cXe0lbh01LB+41a2+bAylpOwypqy3RScyOCbAmO59R3W9Vz16Y3TtykjzXBQWFsHjdw9h4b2JxiNbXgUxtk88YzuEkNDcc0Ynf2Kvi2bWbeZvceIY6ys2aoDG+U3qau2Gbew3y1zYLYNY+MskpidG0Cs0iITQIAZ26sj0u5P54DdJ3GvduMmVkrI1wwjmmWVleqeQ8rJiDwxgYJdE5t4fb+mlUDGpQ+SPk3jcDFpFtY1h9thB1V5MN8ipPDPo2I4eP400J37xp3uHjsx+ZAQTekZWP7af42B5vWeLSWLGqC6MbOU+XxvnhbHJ/ZibVDmAucPdMys4loE9zckl/PwZ2CWRvz463Hzc1Ivio6z/xpxt9ZZkZvevKMv2wFAm3D2EsV2MR1Uz0/fVcSbO6uSw/YhZt/f4KS+a4/dEtY1h9q+G0D0MnE4vj9s1eX0ZVBFIro8mP8fTgHJS3/qyiM2HjIiVLa43s3qGEAaEhUUyfdTPGRYTgNPp/TzboDZ/k6vv8eESnE+sRvCLuzsTFmQj7Ppe/GLSI9X2aKvONTExMT9YF151bpzF6Ne896TK/2oBawvv58HeoeRveZm50xdUXuHGWTz46v3E1TgQ2yFWDUhmr+eiiak8N7LmuVnzd7zJgv+cXXVw9ZAx9Hr9WZI7VJszvX7WNjN3Mb53KJxNZ8E9o2p+BM9TLT4r4OX/zmL0hvtp7/6ztJiiEowAlvt4Fexj1bSh7PU2ayEA0UTNXMO43tXc2Tu01DI+mGWf1XKwfdYtrE31WBQynv5vTyWpTfXH9XTay8z/gyUPJKcweVofwjjEGm8zLJane9lnY7j3Zf75QOfyxodr79954A/V9Fi7JKKZ/VRSLaL2Wax+LY1F5l99+w9hSmIozp2fls+wUdtlRHbhg1FGUAqA80W4XEAzGzZztgRXznbeWXKwSo8ce9sbmH2POfaDN2V5bF26jlessw9a9+mF61g6ryw9Wn3vGL9Qpo81GkveZKZax0QIYNTQO6pvCAKuzDSe+yjL++xx9ZGQxKrkmhti+XtSeS71dJXgUef4njxnjnHhVeFRVr+fziLLHeGxIx5kmOfjXMVFuMrAFhhk3HYpK2D/un8xLcM6k01F3qt67C7AL5RnxgyiV0vvA8Ua8tj6/jpeqX7iwzq54PHJz2DR0p2srvH4lOIqNO6+Xfj4APZoZo9JIramc1jZUVa/nl5eNsEzvzvYkfIpM6uPw1Zib9uFN+83g29WZUVknygg6roIY8wNL2NqdE5IYkay+WikV5XrEUMDykl980EDykm91fM3Aeic0IcZA2JqHrQ1cxPDPzLvSAMQyvRHhtC9mtOzJ2v5a2g+gLrXl+5zxQXVtE8ieHFiMgnu8nJmJzMXZVRbp9eYX8vyyM4JJqptUOXzF9Tu2BYfZ23KJt6p7bNeF9Aov0k92EPb8dz9FwqIWct1bdsVXspCA8oJQK8eSTyVFF19WXHsZo5lTDt7TCJvj4j32j5wHthOZuseJIRVzbO1qUfA2z4DGDvCuFj36kwWOcHRRAZXcwwuULaAqnn2Atu4so7jjG5HWJXf0th2yoPJxvg8XpWSv30dkzZ7n42tXuzRzB7rvSdV/r5UPir5MWOtbUtT/erL+qioB6rkDSu/GOY+2Yco6/moic/xbvUpJ/WuL2vIe65j23gtoy3PDIj2WnfVu81f7/ZlLep2k/X/1vv41GafjXw+qexWnpz/e35SPl/ZET4e8Vv+XnmlGlWXja4u30xj8e8WsP07R/kA7OcLstj+3pPMnfpyzYO5fTONJQ88yfJNhzh5tvIA7kVnc9n7+fsseMASrAI4dohD3zkoKrR0eygt5vR3X7LxzSeZ6y1YBVDwPlsfGcHcRRs5dNJRacDw82dzObTpfRa/YQmqXGqlxgDrxuyJxufcu+5N5o6qKVhFxWyK/0jn2zONMEB+TQoWsHHUCBZ8/CXZnvsqLabg5D7WvjS0arDKFyz/Ox9/Y57CHfv5OMWXglWXmjnYdzNzBg1/cJ3JYse/PmFCStVgFYDzxEF+/c4nrN1znHzP2chcDnIy0pkzz9uJCyjMI+PoaZyFRZUHGC8rwZl71NhnTcEqgDIHMxd9woqdWZX3Xa0SUtZ8wvMf7yQz11ExgGRZKa4zWWz9eBXjvF2EN0R+Dpkn8nAVWoIf54vIP5HB+uWrmFTNRfj+jG08+rfP2Zp5GqfL4/sV55G97XOef7tqsArgow2prN15kOwzRbjOA4HG70mpg5yMbbzzt0+8B2MaoszBK4tWMmdjhrHf8t+0FFdhHtk703nn3cYLVlHt8SnFde40+9PW8fyiqsGqSsqMAf7dM8bU6vg4s5j69ipSth0l55xH3i0z97vtc+bMszRkG8B5Yh9TUtLJPOOxr/MF5GTuJOVvq5j8tZdBzz3s35PGhMXp7M+1nB3LSsg/kcHaJVtYXjmlYeWkvvmgAeXkUti/J51x7rznWfecL8KZe5DNaz5hXIMvvio0NB9AferLxnCaLYcqWoUXejx3/540Zny8m+xzHvnAlUf2HuNcstzrdPEAJWQfzSLnnFnnlTPKZebONOa807gXF43ym9SD03Gcae8tY16VMgYUO8jJ3M1qr+X60ti6PY0Ji6z1tNlGyNxJyoqMKhMwOI/uZMZHnvmgFNe54+z4eBWPrjlIprfJMBqkhEWrPiVl5/HK55Izx9mz8RPGLdptPhJXjTIHMxetImVbFvnWhrfzNJnbPmdOWuUgDmUOZi7+hLWZeRV5tqwUZ+5Ro45dnok5ZFBVZQ7mpHxUXs9WnIdKcOYeZO3ilYxrzGAVxrnv+cWfs+OYOfA0gNP4TSb963SNE780dX1ZK2Vl5rhc/hWz2NP053i3+pSTeteXnnnP/f1ceWRu/IQJSw+z1Utb363ebf5LoN7H5xKcTyr7ktff+zdmR9N6UQ8ruYjcvZ0uUs8ikeqU3xnycidP5Arj7mFV9a7alW3s3Q8yLBZytq7i1+leb++IiEhDRHRh4ZiuhLkOkzJ3WzXjtYmI1OQn/H7hk9waCpz6N3+c+Lo5Q3vtqIeViIiIXGZCiWqFMWvUMQWrREQuBvt15mD4p79nqzVRRORC7FEMeHwkCaEALvZ/vqBOwSoUsBIREZHLTmArY5pz1zF2N8asUSIiUsXANsbMUDlHj/nMI8wichno8yTzU/7Jyvff4LHbo7Dh4lTaAl5aXveHexWwEhERkctLzLW0BDh+opFmjRIRkcqCiI0MMmaRPKyerCJSBzY79iAbuJycOryVf7z0aybO2VCvseg0hpVcRBrDSi4RjWElV5GrdQwrEREREbmyKWAlIiIiIiIiIiI+RY8EioiIiIiIiIiIT1HASkREREREREREfIoCViIiIiIiIiIi4lMUsBIREREREREREZ+igJWIiIiIiIiIiPgUBaxERERERERERMSnKGAlIiIiIiIiIiI+RQErERERERERERHxKQpYiYiIiIiIiIiIT1HASkREREREREREfIoCViIiIiIiIiIi4lMUsBIREREREREREZ+igJXbxFSe23CE5zYcYfREY1HY77dVWXbVSk5hsnksJs8cbywbvYbfWZeJiIiIiIiIiDSQAlY1yD9ztvz9+dJKSZdeh6n0f2sbU9amkmhNayonz1Lgfl9aXDntkgum86PjeP7vL/HWqleM17Jn+O2zfYm1W9dtTM0IHXAHT/zd3OffH6SzdRWrazsy8NnHmLHE47OueInZCx9j3C86EmxdX0REREREROQKp4CV25FT5cGXovIojJuD/CPWZZdY3K3c3LkVIQHWhItkSy755tvzhacsiZB/8n3rokvHHs/9b0/niUHxtAltVrHc1pLY24bw27cn0K+T5waNw5ZwG+Pems6sSbfTOdSa6p2t1xB+N38C99wWw7VBHp/VvxnBYTHcdvcEZr56O9d6biQiIiIiIiJyhVPAyq0UzgPgoOCkuSzXQVGlla5iBRVHouDMauPNIUdFDyuf0Yx+z4+mX+tmQCGZ6xYy7eFneOzhmby17iiFAPaO3PN4IwaBru3IwD9OZdaLI7mtbTB8v5e9J6wredOOe8b1JdoGOI+y7q1XmDr8GR4b/gxTn17M+u8KAQiO68uIQdZtRURERERERK5cCljV5GyRGbAqpuiMNVE4ctYM8nnrlXaJ3HY3Azs1A86T+fFf+K+3M3A4Aec59r79Fi+nGr3DbNc3YhDotj4MvqU1wZzn5BcreO6RxWTWJtJ5S09ubg1QyFfL3uLj1DNGQA0oPLSXD5/9F/tdAMG0iW1eaVMRERERERGRK5kCVm6pWeYjb2fJO2RNPEv+DusyQ+Lb5qDjL4wBogl76G+MXp5RPlj775an0uP2LtbNAGjWcyo9ZqYy/sOM8sHLn9twhKc/3MbwJ8bg8YAYeOzruQ1HeG5aH8IAiGOox7blrw9TaGPZ3lDxGcv3+d8ZTHw3hcRqPqfhMKfPAhSTl2tN8+iVVgP77U8yP2UlK1f+k/lTBnAxhpLqnBxv9Jz6fidLF1aNMn7/1ga+KsIY46pPN2ty/azbyd7vj7P+tZm8+PIXfG9Nr469GTYAzuNyWhMBZx4OM4L1f4XnrKkiIiIiIiIiVywFrMpNY/GADswY0Jet7vGqUkcxd0AHZgxIZqdl7Sr8o7h57hom/6o/7VsGli9u1jKOwb9fSP/eldYGZvHgnyYxuHccbVoEVgpOBbVoxc13vcCUt2cR4rG84foTN7viMzYrKaaosJjz/oFEdOjD0N+v5MGJ/a0bmRaw9p4OzBgQz5oV7mXuY3YLa1Mrr11VAuPv/QmtgwBstE66iwevt67TUO3oFmP0RHJk7iTLmkxL+jw7gM5Bxl/Bke2Jtq5SL3tZ+MgbfPhvd/+oWkrPINMJ0Jxuw4dUGQz+2nG30y0U4DgHNlROExEREREREbmSKWDVSMJ6jmf4TaFw9hBrXx3FjAEd+NNL68guAWhFj5FTrZtwviCXvZ8vZcmLv+RPAzowY0AHZoybxvKvHAAExd1N8kMV6+981FxnQAdmzEo3e4QdYo17mefrnlFYOz2FPPUCD3YLhZJc0t4YyozB8bw6NJ4/DXvS3GcgcSNfoNeNlg0bRR4FLo8/XU7+r9ZdkWorhjbhxrvTJw5XSrEl9OWxvz/Dw7e1rph1L7R5Nb3QmspeFi78Cgdgu64vv313KhN+Ec+1cfHc9ep0ZtwVg43zZH68mI+/s24rIiIiIiIicuVSwKqx+EPRd+uYPyaZ7evSATj/+URS3cGn628lotIG01gyrCerXprGoU0by8eC4rulZEx9mbRcgECibhpfaat6C3mWwclGf6KMpSPY+PG+irSC1R77jOa2UY20z0qyeffNv/PlMScuRzZfLvk7//D2GFyDBGOzAZzj+/JZHYPpPOkJZr04hJtDgdIzfLXHnOUwqHnjDbxeT64NS3jhtc/Z7wCCWtPt7nHMeHUcg+Kag/M46W/P5L+8PNooIiIiIiIiciVTwKqxnE1nyeSJnLYMPp79nRkc8afKmFTVW0r+WeuyBhreh7gAoPBLvlhU9WE5WMrBI0ZwLaxNTWNZNcCBj3npN2N4YNwTvLR6vzW10dkSbmPc29N5YkA7goHCE1/wzqOv8M7nxzG+qW8o/PoY35/z8jhhUHOujWptjnMlIiIiIiIicvVQwKqx5GaR7W2mvPnJ1T6iB9GEDX+dwW8YA68/vabiNaiDdd2GiYiLNgJmwbdyr8d+PF8Pdg81Vm7Z6hI/KtdwoT+ZwIw/jOS21s2g9Bz7P32LaY+t4KvvgdbNKx4LvMRsvYbwu/mj6XNdMBSd4osP3uBPH3zFySLAvzmdhzzGjBdvu+Q9wURERERERESakgJWl0rIePqnpDJ50jB63GwMvB4UXPFq5m/doGE8/5/nfiq9GnmfTc/9YGVzOt/akVB/cJ36ig9emMUb7x6lfAgt9+x8jjyyy7e9BOzdGDepL9E2IP8r3pk0m4Urj5O1cgkvPvIW648Z3yc04W4evq/2/fNERERERERELncKWF0i7Z+fSlKbQMDBoY9nM+eByoOmrzlk3aKRnE1ngXWAduvLa2+wy8ExThoj0QOFZG14h2mPLiF9T/kIYQDcHNXSeON0cEnHMh/Zh252gHN88fclRu8vN+dRPnxmDftdAM3o3KuvHg0UERERERGRq4YCVpfEVG6+KRCA05teZskbb1KQa12ntgIJrMXjgyePmWNptWhN2xBr6pXiMPuzzLGgHPv58M3DVB0ZqiO3xTU3VsnOqHksq2tbEn1Ly4v2+GDn68zAWdFR9v6PNRVwbmG/uwvYtZHEWpJFRERERERErlQKWF0SrQg3oyBFBVUHQG9219/ocb11qcUhB8aQWdFE9zNm/6vRukPm429xJE27GLMA1kKnu/j9X97nn++9wdPDOltTG8UX6WaQKvRmfj7ODAh5uPaRoXQLBTjD3tTD1uRytgEjmfH2M/zuj88we8kEBl7o96iH/ysyH1IMaklbr/+/OT8KMt/m55BpSRURERERERG5UilgdUkc5rQ5C2BU76nE9zRm5WvWcypJb+3id0/0p01A5S2qOPIlJ83/EX9/CklD+tc8C+GRl9nydTEAYb2fZfJb84lL6lOe3KzzGOKeSOHBf24mOdlju0YTxSOTfsGt19mxhUXR68Ff8JDduk4jWPcp/+8EQDNi7/oNv300nlA7YG/OzY8+xrND2mEDCvf8i6VfWDeu0G/QbVzrHtMrqCP9RrazrOEpmGtvaUe0x+tH5b9fs0ppba6r+JWy/r0f4ynAdgx6fhwDkyt6cwXH3czAlx9jYFuA82R++UXFGFwiIiIiIiIiV7hrYmJifrAulNpLfPsIQ+OAQ0uZ8eg0a3K1QiamMnFkHO4ONJWU5vLtyVDaXxdI/paXmTt9gXUNuND/OJvOAutYVCHjSX73WXq18lxo5WDri7eQusm6vKESeHL+H/lJa/ffp9gwZSJvXYxBpDrdzm9fuINYrwcGXKe2sOCpj9jrtKZU6PfKS9zfySO4tG4mf3r7XKV1KtzOb1fdUatH9hxfvMO0l909u5px81NPMP4nrWscn+r7XSt4/Y9fmMEtERERERERkSufelhdIgXzf8mC99LJPmv0egKgxEH2jtUsGNWT1O88llejYH4y899Yx96TDs6XWlO9KFhA6gNDWfDxl2SfKa60zflCB99uWc3iqUMvQrAKYA8Llv+bU0UALk6lreDvFyNYBXDgc/5r0jt8+MVRvvfoluRynGLvuneY9mjNwSqATe+tYa85wFXhsS188kF1waqGOM/e12Yz7bVP+eK7MxR6dqEqPc/3x/ay7s2ZvKhglYiIiIiIiFxl1MNKRERERERERER8inpYiYiIiIiIiIiIT1HASkREREREREREfIoCViIiIiIiIiIi4lMUsBIREREREREREZ+igJWIiIiIiIiIiPgUBaxERERERERERMSnKGAlIiIiIiIiIiI+RQErERERERERERHxKQpYiYiIiIiIiIiIT1HASkREREREREREfIoCViIiIiIiIiIi4lMUsBIREREREREREZ+igJWIiIiIiIiIiPgUBaxERERERERERMSnKGAlIiIiIiIiIiI+RQErERERERERERHxKQpYiYiIiIiIiIiIT7kmJibmB+vCRtHv97z/m1uxAxTlk/3lZ7z715XscVpXFBERERERERERqXDxeli5nDiLXLhcQFAYUX0e4o9/eZqfWNcTERERERERERHxcPF6WJWzk3DP0zw5KoEwIPtfT/DEO9nWlUREREREREREROCi9rAq52TPh39k9V4XAJEdfmxdQUREREREREREpFwTBKwMeUUlANhsIdYkERERERERERGRck0WsBIREREREREREakNBaxERERERERERMSnKGAlIiIiIiIiIiI+pckCVv8+ccp4Yw8nwZooIiIiIiIiIiJiarKAFTuzOQXQuhe/+FUCdmu6iIiIiIiIiIgIcE1MTMwP1oUXS+cHXub393TG7g+UunC5IPOzB3g2xbqmiIiIiIiIiIhcrZquhxWQfSST7O+dxh/+NmxBNgJs1rVERERERERERORq1nQ9rK7/Bf/157voYHOR/fkCXv/nBo58b11JRERERERERESudk3Xw+qnCXSwAae28u48BatERERERERERMS7pgtYuffkzGOPJUlERERERERERMSt6QJWIiIiIiIiIiIitaCAlYiIiIiIiIiI+BQFrERERERERERExKcoYCUiIiIiIiIiIj6lyQJWA65rbbwps6aIiIiIiIiIiIhUaJKAVdgdTzMywQ5A9qEN1mQREREREREREZFy18TExPxgXdgo+jzJ/Md7Ee5vw2Yzl+V/yVu/eYkNTsu6IiIiIiIiIiIipovXw8pmxx5kBquKnJz6Zi2v/6eCVSIiIiIiIiIiUrOL18NKRERERERERESkHi5eDysREREREREREZF6UMBKRERERERERER8igJWIiIiIiIiIiLiUxSwEhERERERERERn6KAlYiIiIiIiIiI+BQFrERERERERERExKcoYCUiIiIiIiIiIj5FASsREREREREREfEpCliJiIiIiIiIiIhPUcBKRERERERERER8igJWIiIiIiIiIiLiUxSwEhERERERERERn6KAlYiIiIiIiIiI+BQFrERERERERERExKf8f2FR0G3QPYV4AAAAAElFTkSuQmCC;" parent="1" vertex="1">
          <mxGeometry x="-100" y="330" width="370" height="59.4" as="geometry" />
        </mxCell>
        <mxCell id="mb8kbM6TeNH6ofwH7m_D-11" value="Link:&amp;nbsp;http://localhost:8080/impostos/find/{id}" style="rounded=1;whiteSpace=wrap;html=1;" parent="1" vertex="1">
          <mxGeometry x="-450" y="160" width="250" height="60" as="geometry" />
        </mxCell>
        <mxCell id="mb8kbM6TeNH6ofwH7m_D-12" value="" style="edgeStyle=none;orthogonalLoop=1;jettySize=auto;html=1;rounded=0;exitX=0.427;exitY=1.046;exitDx=0;exitDy=0;exitPerimeter=0;" parent="1" source="mb8kbM6TeNH6ofwH7m_D-11" target="-slpts1ggDoiDcfdw30U-1" edge="1">
          <mxGeometry width="100" relative="1" as="geometry">
            <mxPoint x="-420" y="250" as="sourcePoint" />
            <mxPoint x="-320" y="250" as="targetPoint" />
            <Array as="points" />
          </mxGeometry>
        </mxCell>
        <mxCell id="mb8kbM6TeNH6ofwH7m_D-13" value="Link:&amp;nbsp;http://localhost:8080/impostos/find/Alls" style="rounded=1;whiteSpace=wrap;html=1;" parent="1" vertex="1">
          <mxGeometry x="-780" y="160" width="230" height="60" as="geometry" />
        </mxCell>
        <mxCell id="mb8kbM6TeNH6ofwH7m_D-16" value="" style="edgeStyle=none;orthogonalLoop=1;jettySize=auto;html=1;rounded=0;entryX=0.53;entryY=0.05;entryDx=0;entryDy=0;entryPerimeter=0;exitX=0.548;exitY=0.996;exitDx=0;exitDy=0;exitPerimeter=0;" parent="1" source="mb8kbM6TeNH6ofwH7m_D-13" target="6i7wk0UPwE9rVXbTgw17-1" edge="1">
          <mxGeometry width="100" relative="1" as="geometry">
            <mxPoint x="-740" y="320" as="sourcePoint" />
            <mxPoint x="-640" y="320" as="targetPoint" />
            <Array as="points" />
          </mxGeometry>
        </mxCell>
        <mxCell id="mb8kbM6TeNH6ofwH7m_D-17" value="Link:&amp;nbsp;http://localhost:8080/impostos/deleteImposto/{id}" style="rounded=1;whiteSpace=wrap;html=1;" parent="1" vertex="1">
          <mxGeometry x="284" y="160" width="296" height="60" as="geometry" />
        </mxCell>
        <mxCell id="mb8kbM6TeNH6ofwH7m_D-19" value="" style="edgeStyle=none;orthogonalLoop=1;jettySize=auto;html=1;rounded=0;entryX=0.485;entryY=-0.034;entryDx=0;entryDy=0;entryPerimeter=0;exitX=0.54;exitY=1.048;exitDx=0;exitDy=0;exitPerimeter=0;" parent="1" source="mb8kbM6TeNH6ofwH7m_D-2" target="mb8kbM6TeNH6ofwH7m_D-5" edge="1">
          <mxGeometry width="100" relative="1" as="geometry">
            <mxPoint x="20" y="250" as="sourcePoint" />
            <mxPoint x="120" y="250" as="targetPoint" />
            <Array as="points" />
          </mxGeometry>
        </mxCell>
        <mxCell id="mb8kbM6TeNH6ofwH7m_D-21" value="" style="edgeStyle=none;orthogonalLoop=1;jettySize=auto;html=1;rounded=0;entryX=0.5;entryY=0;entryDx=0;entryDy=0;exitX=0.5;exitY=1;exitDx=0;exitDy=0;" parent="1" source="mb8kbM6TeNH6ofwH7m_D-5" target="8wihX_Zw31_P2R55SVDD-1" edge="1">
          <mxGeometry width="100" relative="1" as="geometry">
            <mxPoint x="50" y="420" as="sourcePoint" />
            <mxPoint x="150" y="420" as="targetPoint" />
            <Array as="points" />
          </mxGeometry>
        </mxCell>
        <mxCell id="mb8kbM6TeNH6ofwH7m_D-22" value="" style="shape=image;verticalLabelPosition=bottom;labelBackgroundColor=default;verticalAlign=top;aspect=fixed;imageAspect=0;image=data:image/png,iVBORw0KGgoAAAANSUhEUgAAAMsAAABrCAYAAADZ53bdAAAAAXNSR0IArs4c6QAAAARnQU1BAACxjwv8YQUAAAAJcEhZcwAAEnQAABJ0Ad5mH3gAAClESURBVHhe7d13dJznfeD77zu9YzCD3gn2AvZiUSRFUVSXJVFyHMeR7cR7nXXi7MndnHuzJ/cme51kz97N5pxsvHH2pjixbMuWY9lWN0VSFIvYSbAAIHovA8xgML2/7f4xECQMCWpkUQwov59z5g/O87wzQ8z83vepv1dQVVVFo9F8KF3hExqN5ua0YNFoiqQFi0ZTJC1YNJoiacGi0RRJCxaNpkhasGg0RdKCRaMpklDspKQkSaRSKVKpVGHRgiwWC263u/BpjeauVHSwZDIZpqamGBkZwWq1FhbfQJIk3G43a9asKSzSaO5KH6kZlkgkGBsbQ1GUWz5EUWRmZoZAIFD4EmRzOYIzIYZGxxj3TSKKYmEVjWZR+khXlv7+fnp7e3nmmWcKi+eJx+Ncv36dTCbD3r17555XVZWhkVHePXeRy+0dlHu9fO1Lv0Fledm84zWaxegjXVk+rnQ6w/Ez53nrnROUeTyUut3o9frCahrNonRHgyUcjRKcCeGw23j4/j08+fADlDgdhdU0mkXpjgZLThQRJQmX08nqFcupr63BaDQWVtNoFqU7GiyiKCHJMgaDAafDXlis0SxqdzRYEskk2WwWg0Hrp2juPncsWBRFYSYcRpYV3C5XYbFGs+jdsWDp6u3n6MkzpDMZ1qxcXlis0Sx6dyxYTl+4hCiK7Ni8kR1bNhUWazSL3h0LlmXNTZR5PSRTaYIzocJijWbR+8jBoqoqoije8qEoSuFhfGbLJpob6wlMT3O9u7ewWKNZ9D5ysIiiiM/nu+UjGAySTqfnHWezWmlqqMNsNhEIzswr02juBkWvDctms/T393PhwoXCopvS6/UsWbKE3bt3zz3X1dvHz14/iChJ/Nl/+sN59TWaxa7oYHmv+ZXNZguLFmQ0GrFYLHP/HhwZ5cWfv0Y8keS//el/mldXo1nsim6GCYKAyWTC6XQW/fhgoLz3GgCpdJpJf4Ai41SjWRSKDpbbweN2U11ZQTKZ4tW3jnDxyjVSBX0bjWaxuqPBUuJysmHtalavWMbI2DjXrneRzmQKq2k0i1LRfZbbRZJlpoMzdPb0EUsk2LdrJyUuZ2E1jWbRuePBotHcre5oM0yjuZtpwaLRFEkLFo2mSFqwaDRFuuPBoqoqijamoLkL3fbRMEXNrzgWEFDJv7ROyMekCuSkHLIiYzPls1oqqoKAMDe7f7vJqoyqqugE3dznuBupqKC+vwrio5AUGSjubyCrCrrZ70NV1bnv8L3vUxAEBD76Z5ijqvmHIOQfdxH9N7/5zW8WPvlx/NaP/4grE50Mhyd49frb/MuFl3h63YMIgkBPYJDh0DgKKh5bCQD/7id/zHQyRLWrAqf59iexeLnjCH9/9kUCiRCbau/OVLI5KUf7ZC8nhy6yrmpFYfEtSYrEnx/5Nkf6TmMxmmksrS2sMmdgZpRnnv89ql0VlNlL+dGV1/mzw/+TtskeAokZ/vSt/0G1s5wlnrrCQ4siJxLMHPwF/h+/iKHEjbm6urDKonbr08wvYTTiYyo+TSgVYSo+zUjYN3tugtc7j3Js4ByiLM3VX+Kpx2qwIH3gudspmokzEfUTTkULi+4aPdNDnBi4QE9gqLDoQ6kqTMWDTMWmSWZvvbQoK+XoD44QzyaRVYVQKsJgaJzJeIC0mGEkPEEiV3xi+A8SQyHCJ47j+5fvkOzuRk7/cq/zb+m2B4vH5sZpdmA1WnCa7Xht7rmL9uDMGL6of179p9Y+wLaG9ZRY58/iS4pMOB0lko7NC65CyuyXGk5HyckfPW9yVsrlfxyKPO/5eDZJILHwvhtVVYlnEwSTYdLirZfsZKUc45Ep4pnEDe/znmQuzXQyxEwqQlbKzSsLpSL4Yn6SC/xQc7LIWGSSaCY+2+QqXjQTJ5SKkLrJ/8FuslJuL8Vjc1Nm9+Aw2zHoPlpmHjmVItHRTvC1VwkdPoTB6UK4S7OQ3vZm2MXxdqqcZVQ4vCCAUafnoZW7OTF4gcM9p0jkkritLpxmO26ri57AEHaTFY+1hHg2RdtkN8lsiutTfXQGBugJDDEW8ZGTRcrspXNt9lgmwUh4go6pPk4PX6bLP8BMMoIgCNhMFgw6AwBXfJ30Tg/RWFrDPU2byMkil8Y7iKbj+GIB2id7aB3vYDIWQEElI2Xpnxnh/MhVrk50khIzmPRGLAYTGSlL7/QQbZPdpMUMJwYu0BUYwBcNkBEzmI0mrMb3V1oHk2H6Z0a56uvkxOAFRsI+kmIaq8mC3WRFVmRimQRXfV1cHGujdeI63YEBAokZzAYTDrMdXyzAuZGrXJnoJJqJYzNaqXVXYdQbCCbD9AWHuTLRycmBCwyHJsiIGazG/OszezL5RfdxZEVmXdUKlpU1Iisy4VSUKxOdnB25QvtkL/5EkFAqwptdx3lk1R6WeOvxx4PEMglWlDezrnI5V3yd7GzazBJPHeFolK7efib9AdwlLoyG/N+7kBgMEjt/lvjFiwgmM/bVq5HCYZybNmFpaCisvqjd9mAJJsPUuCqocJbhMNvx2Nysr17FXxz5NpcnOgkmQ8QyCbx2N6sqmvnaS/8XOVliqbeBsegk/+Pkd5mI+nm79xSjER9XJjp5p+8sEzE/G2pWYzWaEWWJa74uXu44wsHu45waauX8yFU6pvpIZJN4bG4qHB4EQbghWCKZOH9+5Nv0BofpmOzh9PBljg2c4/TQJSLp/Fn2nf6zHO59l9bxDq5MXMdjc1NbUslMMsIPL7/G3535Ialcmp+3H2I04qNtsovhsA+b0UK9uxqdTkc0HefM8GVe6zzK231nuOrr5J2Bc/QFR/DYSqh3V5OTRa76uvj/zvyQo/1nuebr4vL4dS5PXEdWFFZVNHPN18Vb3SdpnbiOPx6kZ3qIR1ftQVFVTg5e5CfXDnKk9xQdU72cGmplIurHarJS4fBiM1puGiyJbIpTQ5f4zvmfcGLwApfG2+kODOCLBegPjswFi6IqWAxmVlY0s9TbwGQswPqa1VQ5y+kdGOIHL/2cts5utm5Yj8N+8/6mGJxG9PsxVVVR9uhjpEeGyfmntGABaKleycqKZhpLa1lZvoT11asQBIGn1u2n09/P8rIm/uj+32F38zYEQeD7rS/T7G2gpXolyVyKd/rP0Ts9yAPLd/K1Hb/O42vuR6/T8+r1t0lkk6yuWIovFuCFy6/yTv9Z9i27h//80H9ga/06wukYb/edoWd6kIdX7saoN3DV1zUvWNJihrd6TnLN183qymV8/Z7f4AubniCaSfBC6yvEs0m2N6znuc1Ps6d5OyNhH1k5x5rKZSiqylVfFxfGrpGTJf5439f5D7u+REvVSnqnBzkxeJ6NtWtwW1281HaQl9sPo6oqX9l6gD958BsYdQZODl5kOjFDucODxWjmh5dfJZ5N8vWdX+QP9vwWD63cDarK91tf4d7GzWxr2DAX+KsqmvneF/47DrOdN7uO8d2LP2M6EeLfbf81/tvj/yf17mpGIz5OD7cSyybY0bDxpsHii/n5r+/8PRtrVvPb2z7H5zc+SqWjjMsT1xmPTs0Fy/KyJjbWrqHJU4fDbGNP83aqnOUwm+Q9kUxS7vXSsnoV1oK9S3MUBdvyFbi2b0dnMpJsa7trg+W291k+LkEAnU7PfUu3U+uuosLhZVPtGpaVNdE6fp1kLs1weBxJkXhwxb38bzt+nVpXBTsaNvD46r2sqVxKMBmmbbLnpokz3rPM28g9jZtYVtZIud3DQyt2YdQbWFbWyLb69aytWk5tSQXVrgr6g8Okcu93jkssLvY0b2Nz3RqcZjtLvQ3UllQxEfXTPtnDTDLM0b4zVDnL+PLWA+xs2oJZb+LzGx9n37J7iGWTdAcGMemNVDjLiWbixDIJJFmm3l3Nc1ue5ju/9l9ZV70Ci8E873O/p2d6iBpXBV/a8jQPr9yNTqdnz9LtbK1fjyhL9E0PE88mCg8jkU3SFxyhy9/P42vuZ2t9CyvKl7B/xb18ecuBwuoLqq2p4tnPPsqzn30U1y2SuxvcbvSOhcvvJosuWAw6Aw3uGjw2Nya9EaPeQLWrgk01axiN+MhKOWaSERRVpa6kijJ7KUa9EbvJxprK5TSW1pHKpZmI+m85+Vnu8OC1uTEbTFiMZupKqtAJOurd1VQ4vFiNFox6Iya9gayYQ56dPwJwW13cu2QLLosTnaDDYbZT4fRiMpi4Ntk92/6PUuHwsrysCYfZhiAIeGwlbGtYj8VoJpAIUmor4dGVe6grqeTl9sN88/C3+JuTz/Pu0CX0Oh1GvRHdAnMR/ngQi9FMs7cel8WBADjNdrbVt1BbUkksmyB0kxHAWDbJcGicjJjFbXFiN1mxGMx4baU0ehYeVi5kMhopLSmhtKTklrcNEfT6u7ZDX2jRBYtO0OGyOtB/YNTFpDfisbkwG0wIgoAoS7NDzfN/SF6bm1KrC0EQ5h1/MzaTFaM+3ynVCTrMBtPc8yb9rTP7mw1Gqp3lcxN8ep0Ok96IQWcgJ4vkJBFFVTDqjRgLXqvMXorFYEZSZCwGMyvKl/Ds+kfYVLcGg85Ad2CA166/zfcvvcJVX9eCQ7XZ2cndwknKMnspTrMdAeGmE5CSLJHKpVGBeDY1N9KoqMonNnz/aXHjX/PfmKIqxAqGWEVZJJFL0VRam78SzI5M+RPBeUOl+flmFbPBTJWzbMGzMoBe0CHc5MdUjJwkMhUPzq1WkBSZVC6NKIvUuipxWOzodXrC6SihVGTesdF0DFVVMOlNxLNJ+oLDVDi8/PqGx/ntbc/wwPJ7cJhsvNF1jEM9Jwkmw/OOf4/VaCGRSzGdmJ+w8L05EpfFgdt6Y05pk8GIy+IEVCaiU6TEfPMyJabxxW68raHmfb/cr+VjEBWJRC5FNB0vLILZ8uHQONOJEFkpR0rM4IsG8EUDrK9eic1oyQ9LA33Tw0xE/eRkkbSYYSwySSQVw2Mroa6k6pcOhg8TTsc4OXSR0OycSDARYioeRC/oWFO5jEqHF5fFwXBogo6pXpK5FKqqEs3EaZ/sISNlKbE68ceDvNpxhP915oeEUhG21K3juS1P89yWp7EYzXT7B4ln8v0OFRVJkUmLWdTZJmg8m6TT308sk0Cd7Y90BwYRZZG6kqqbrohwmR1zTbeu2WHqtJhhKj5Nl7+/sPqCMtks/sA0/sA0knR7rkgz4TChcIRMpvgMQnfSJ/NrugV/PMiJ/vP8rP3Q3Jn5g1RVIZFL8UrHEQZmRmkda+dfLrzEpbF2Hlh+LyUWJy3VK1lTuYyJ6BTfvfhTxqNTtI538KPLrzEcnmBHw4b8EO4triwfRygV4a3uE/yi6zh9wWEO956iKzDA1ob17G7ehtvqYkvtWsLpKK9ef5t3hy6Rk0Ve6zjKm13HMetNtFStwGsvZVXFUq5P9XFy6CJj0SnGIj6OD5wnkUmyd9kOyh0emL2aBeJB2ia7ycki9zRuwma0crTvDK93HkVRZI72neGHra+SFjMLLouxmaysLF/CU+v20zrewdnhK1yZ6OTUUCvv9J8trL6grt5+/uKv/5a/+Ou/Zfo2peP9zg9+zD//6F9p7+4pLFoU7miw7GnehtVo4VDvu3QFBlBVlZXlzZTOrhMDsBmtPLRiF4lsij85+Nf89cl/wWVx8rv3fpF1VSuwGM147W4eX30/B1oeos3Xze/+9E/51rvfI5CY4eGVu/nNzU/Ne1+b0YLFePNRpfcY9AZaqlfiMNkKi25QW1LJFzc/yZHeU/zxm3/F0b7TtFSv5Dc3PYlRZ0BA4MtbD/CNe5+j0lHG35/5EU/889c4NnCOJ9bcz7+/5zfY1rAel9nOnqXb+er2zxFMhPnjN/+K33/5z+mbHuYP7/sqj6/aS5m9lGZvA2urljMVD/JHb/wlbZM9LC9v4ktbnmZT7Rp+fPVNHv7H3+an7YeoLank2ZZH2N28rfBjzyl3ePj9e7/MuqoVvN13mv9+7B85M9TKZxo3saFm1Vz/7VZUVZ27O/XtWourqCqqMrvQchG67auOb8UX9TMS8RHPJvHa3GyuXctVXxclFgeVznI6/X38zcnn2VCzmq316xBlCUEQqHB4qXFVUO7wzK14TYsZ/PEgw+EJEtkkFqOFEouDupJqql35uQCAwdAY/niQcruHZWWNZKUclyeu4zDZqHdXz7Xrc7LI5fHr1JRUUuHwYDGYSeXSDIcnCKdjrKtazkwywvMXf8bp4Vb+ZP83UFQFURaxm2zUlFRSW1I5b6g3lIoyEZ1iKj5NSszgtZVS5SyjanbCltk+2mRsmulkiOlEiJwsUmp1Ue+uptpVgUGnJyvlmIwFGJgZI5VLsaNxIx6bm3g2wUTUz2RsmmQuRam1hFKbi9qSKrw29+zrq7SOtyOrCo3uGqpdFTDbrOsNDOFPzJARM9hNNrx2N8FkhGZPHV576S2DJhyJMjA8AsDaVSsWnmf5ACWXIzM8jBQJY13SjLH8/e8J4H999wdIkszO7VvYuqFlXtlicEeD5cNcHGubC5avbD1ApXNx3fJ7cGaM5y/+jDMjl/l/H/s/2FizZm5ETfPLEyWJickpXj14mKqKCrZt2kBzY31htX9zd7QZ9mlgNppwmT8dk2yLhaooxBNJqiorWLV8KVUVi+sk+Z5FFSzvDfmW2lwfeXXrnWDUG2gqrWNL3TrMBvPdtndp0TKZTLSsXsmzTzxKy+qV2Kz5RaCLzaJqhqmqijy7c1Kn032c/XifCBU1v3twdudl4YSg5tNtUQWLRrOYLapmmEazmGnBotEUSQsWjaZId22wvJeiR6O5U+7KYJEVGUmWFkz+oNF8Em77aNjXf/qn1LmraCqtZTQyyVBojH/43H+56d6KX1bbZDcHu04gKTL/9/7fKyz+yCZj07zeeZQ3Oo+Rk9/PrGLSm6hweKl3V/G5DY+yzNt4yyUgn6SBmVFev/4OxwfO8Q+f+y/83ekXEBWJz67Zx86mzYXViyKnUky98AP0Nhvu+/ZiqZ8/ax6/3Er4+DHSg0OIwWnMtbWUPfEkzs2bMZS8v54v2dlJ9Mwp4q2tiJEw5to6XFu24n30MQzu/LIbVBVxZgb/j18k1duDlEhg9JTi2radskcfR++6cTvBB6WHh4m3XiLeeonM2Bh6mx3nli149j+Itbm5sPon4vb9gmf1TA8yEp5gKh5kJDxBd2DwtjeYkrk0o5FJRsO+wqJfSk7OzWV6WVbWxJ7m7exaspUNNauwm6ycHm7lexd/znV/X+Ghd0xazDAenaR9specLDIUGmNwZpRo5uZbHW5FlWXEmRmCr71C6NBbpPr7ULLzUyElu7sIHz9Gqq8Pa1MTngf2549583US167Oqztz8E1Svb3YVq+mdO8+5ESCqR++QOTUu4ihfDqpXCBA+NgxEm3XMDc24li3DiWVJvj66/hf+gmqfOtWQuz8WWLnz2Fwuyn/7JPoLGZChw4SPnqEzNhoYfVPxG0PFrfVhcNkx2I04zDZ8jsXCysVIZlLE0jMEEyGPjQvV6GcLBJMhslI2QW3FouyRDybnNv89J6HVuziNzc/yW9ufpIvbnqSp9btZ3nZEi6MttEx2XtDfq2MlCWUijKdDBHP3jwvmKIqpHJpJmMBIun4gnnQJEUilk0wnchnwPngFgaT3kiJxYnNZEEQBFwWBy6L4yOvTZNiUeKtl5h64QfEL18m659CKbwDtaIQO3eWVH8/lqYmvE88Qfkzz+LZ/yBZ3wSxixfJBQIomQzx1laiZ85gqqzE++hjlB94Bs/+hxAMBmIXzpGbmgJFITs+RvjEMaxLmvHuf4jypw5Qsms36ARChw8hx2KoC+RMSHZ1ETt3DlVRKN23n7Inn6L8mWcxestIdnWR7rszJ7Hbnt3lwmgb1a5yKhxeVEAv6Nm77DNcGm8nlklgMpjmrcydjE8zEp5AlEWsRjMzqQg900NcnujgyngnvdPD+BMz5KQcbqsLvaBjPDqVT0ihKnx27T6Y/dEGEiEGZ0Zpm+ymdaIDXyx/R2Sr0YLJYJzbIBZOx+idHuKar4upeJBULsNQaIxrvi5+e9uzrK1aTqm1hHKHhypnOSkxTetEB8vKGllXtRyLwYysyAzNjM2lLury9zMS9jGTiiAqEjajBaPeQCgVoWOqj9bxDi6Nd+SzOmZT6AQBi8E8t6wnmAzTPtXLxbF22id7GA5PkJWymAxGzAYjoiIzk8rnCfvc+kcZDI1hM1lZXbGUSnsZE5NTdPcPgqpiNpsxLLDvPTM8TPCN14mdO4dz8xayo6OYKitxbt6M0ZPfVKfksvh//CKqJOJ96BFcW7eht9mw1DcQv9yKFIlgrq3B4HQS+OlLpHp7KHvyKVxbtmJwOjHXVOcD6coV7CtXYaqqJNHWRujIYWp/53ewr1qFqaICo8eLnEwQPXeO0r33YygpQbhJ/rGZN98gfuUyjpYWyh5/Ap3ZjLWpCSWXI9Xbjd5qxbFhI4Lutp/757ntwTIVn6baVU65w4vdaMVlcdBYWssfvPIX9AVHqHaV0+Cumav/SscRXuk4AgJUuyo4MXCefzz3Y97sOs750WtcGL3G6eFW+oLDbKxZhdNsZzI+PS9YVFT6gyOcGDjPS22H+FnbIU4NXeKNzmPEs8nZPGZeJmMBftZ+iPapXl7vfIdfdB+nOzBIVhZRVZVrvi4eW70Xr81NVsqRlXIkcikujrUzk4qwZ8lW1tesQlZkZlIR/vHsj/nRldc4MXCBi+PtnB5u5d3Bi8QzSVaUN2EzWTk11Mq33n2elzsO0zbZzanhVq5P9SIpMo2lNTgtDjJilrd7T/HPF37Kz9sP0TrewYnB81z391NqLaHC6cVhtqEoCoHEDPuW3zO7JN9FU2kdBlHHa4fe5rsvvoTdZqWmsnLBPF7p4WHi167hfegRKp55luiF8+gslnnBIkWjBN94DVN5BZ79D2Ioyfc7dFYrmcFBpGgEQ2kplto6Zn7xJjq7Hffu3e/3eVRAryf48s+xr1qNsayM5PUOUp2d1P/v/xGdOX+yNLhcyIkEkZPHcaxrwVJbO1f2QeEjh5FTKZwbNuJYv37ueVVViLz7LggCJdt3oDN9sv3JG8P4Y/ripidnFxgK+QFeVcWgM/CZxg20jnXQ5R/g3qYtc/WP95+j2lXB8rImJqJ+Xu88hqwo/NnDf8DqimVzeb7+6dy/8krH23xp69MffDtUVERJ4oXWVxmL+FhVsZTnNj+Jy+LghcuvcqzvHOX2Urx2NwICsiLjiwVYVbGU/cvvpd5dhSAInBpqBeAX3cdpm3x/p14ql+J7l17mq9t/jbWzuw+DyTCvXD/Cwe4TfH3nF9nTvB2zwUSnv58Xr7xGz/Qg8VyK7sAgR/vOEMnE+faB/4f11asYjfj49ukXeHfwEuurV1HpLOP0cD7hXU1JJX/5+B/RWFrDuZFrvHj1dd7qOUmZo5RdS7awrb6FjbWrMetNfHbNPlQ1nywjFIqg1+t5ZN99VFdWzn32m3Fu2oSjpQVBr0NYoAknJxKoooTeZsPgnN/x1rtcCDodciKBIub3p1ibm2/6I2d2ECEXmEZKJDB48rs+P0gwmTCUuJHCIVTpxiYsQNY3mU9CskBKJSWTQU4kFiy/XW77dcuoN2DQGTDo9Bh0Box6I4IgsK1+AzqdnoGZUSaiU+RkMZ9VPzxBs7eBKmc5Jr2RZ9c/zO/f+yW21bVQU1KB1+6mxlXJUm8DsqrcsIkuK+W4ON7GVV8Xm2rW8PkNj7GtvoXVlUv5xs7naCitZig0znBoHGb7M63jHexespUn1z7AjsaN8650vdNDXJ7IN63OjlzhcO8pErkUU/Fp4tkkACaDiWZPA39431fZv/xemjy1eO1uKp1emkrr8icKVZ3boSnJElkpn/Wl2VPP13Z8nt/d+UVWVixBlCUO9byLqMjc07iJXUu2sqysicdW7+WBZTvpDw7T5e8nJ4nodXosBjOCIMz+bQ3oBB3uEhdPPfIgzz7xKFs3rsdTWjr3/ykk6PXozGYEg/Hmt3xQVaREHEUU0dvs6J3zc1C/FzxyPIaaE0kPDqKzOxYOlkSC3KQPKZK/GhW+p85kQl9SghgKoy6wlz/rm8hfrGw3v1oqmQxS4qMPdHxUtz1YFrKtvoVaVyW+aIBOfz9pMcOpoUs0uGto9tbjtbupLalic+1aJEXiza7jfOvk8/zlO//Av159g5lU+KbbTSVFZjQyiYBKQ2ktjaW1OMx2bEYrSzx1rK9ehawqBJPvZ1kx6gyUOTyU2UtxmR3zhoMfWXkfX9l6gK9sPcBXt3+Ob9z7Jb624/OMRSY5OXiR4dA4dpOVtVXLqXdXc2XiOt+9+FP+6tg/8e1TP+DsyBXE2QTllc4yttWvZ4mnju9d+jn/+dDf8J3zLzEWmcRrc+O1uZFVhd7pYfSCjp7AID9ofYXvnP8JP207yGQ8wEwqku/w3yRh3nsMBgPlZV7Ky7y4nA6MxptfMYoiCOgsFgS9HlUUUXPzk5QruSyCwYje6QJBQDCb0JmMsMDUgN5uR+9wIgg6lEzmhu9QlWWUbAbBYoYF+hyC0YgqSyji/M/yHp3FgsHxyd8e/uaf7hNQ5SxnVUUzOTlHp3+AtJjh9HArG2vXUO+uxmIwI8oil8baeaXjCJfGOwinYzjNDsrtnsK/8ftUlayUQyfosBhM80aH9Do9lU4vJr0RScmftXSCDrd14f0yW+rWsm/ZPexbdg8PrdjF0+se5LktT2PSG2mb7KYvOEJWyjE0M8bB7hOcHLzIaHgSg06P1+ae97pOs52t9S0caHmIhtJqopk4lyeu83bvad7pP0envx9UlUQuhdNiR6fTEcvEiWXiJLJJqp3l7F26g2pXxYIZ9D8JBlcJOpMROZVEisXmlcmxGILJiKmsHMGgx1hWvmBzTme1YvR6MZWXIZiMSOEbE1uouRxyJIrBtXB2fYPbjZoTkZP5K/sH6cxmjO7S9+dzPkF3LFgANtSspsTipD84TDAZpnd6mLWVyyh3eMjJIl2Bfp6/+DP6giOsLF/C5zc8xh/e91W+vPUAJRbHDUn1IH8nLIfJSkrMEM7EbhhmTubS6AX93NVDEARMBiPF7pbR6/JZKt1WF/FsgnAqij8e5MWrr/NO/1kcZhv7l+/k6zu/yO/d+xxrq1aQkyVkVWEmFSGRTbKqYin/cc9X+ff3fIFdS7aQFDMc6jnJa9ePgiBgNZjn0ih9du1+nlr3IE+u3c9nGjexb9k91LmrEBdoonwSDE4HBrcbOZ0i53//FiFKNkvW7wdFxeD1IhiNWJuakNPpeVcgVZYRg0GMHg8GtxuDuxS9w4Eci5MLBOaaW3IySS4YRE4m8reiWODKYq6pQZVl5Pj8ppYUiaC3WjCWedEVkQPg47r5p/uEbK5bS6OnlvHoFF3+gfzOQ08dLrODRDbF4MwYI+EJntv8FL++8XHWVC5DJwiEUlHC6djs1WH+JUav01PjqkSUJboDgwzMjJGTRSRFIpqJMzTbV3EWuRU4JWaIZ5Nzj1gmwWjYhz8exGwwUWJ1EM3EuTTWwfrqVXxh4xPsWrIVp9lOOB1lLDLJaMRHRszS7R/ghdZX+UHry9hNVnYv2cZvbXuWR1buRq/T0+brRifoaCytZTQ8STyTpLakkhXlTTSU1jASnuDSWBuTscAtN5opikIylSISi5HOZJAXmK8ols5ixbp8BUo6Q/zaVeRUClWSyI6Oku7vQ5UljGXe/Mz/rl1kJ8bJTvpQMhlUSUIMThM9fQpzTe1ssLgx19SiCgKhI4cRg0GUTIZUXy+Ja1fRWaz5zr/BgChJJFMpEskk8uxEpXPjRnRmM2JwGjkeR5Uk5GSSxOXLCEYTpqo7cwex2z50fCtmvYnx6BSDoTFUVWFD7Rq2Nayfy7cbycS4MHqNWncldSXVBJMhDvec5kjvqXzqHRR2Nm0mnk3ODR0faHlodsj5Av0zI6TFNA6TjZyU4+9Ov8DF8TZaqleys3EzRr2B9qlepuJB9i37DGX2fEc4molz1dfFNV8XJr2RodAYV31dXPV10TrWwZtdx/EngjywfCf3Ld2BThAYmBnl3OhVmkprMRmMdAcGOdTzLtcmu/DHgxxoeYjPNG4imAxzpO80VqOFMnsp/cFhXr1+lGAixMMr97CtvoWsLHJ5vIPxqB+DTo/T7OCqr5NvnXoeu9nO3qU7WF+zcsGACYUjvPyLw7x68DCyrFDqLsFu+/CUTgDBN9+4YeiY2U5z/HJ+eYnOZELvdDL+7b9FlSQ8+/fj2r4DndmMbdlyIieOk+7rQ2+3o8oKk9//PqG3j1D7td/Bua4lP0olyWRGRwi+9grG8gqkSISZtw6SuHoF76OPUfbEZ9FbLPQMDHLonZNcae+kproSp8OOub6B9OAg8atXyPn9GMvKCB05RPD113DvvBfPA/vRLzBUfjvd0WARBAFJkYlnk0wnQnx56wEqHF70On1+aFDQYdKbGI34eOnaQc4MtyIpEvXuapxmO4HEDLuat5HMphgKj2MzWdi//F50go6W6pVYDCZ6pwd5u/cMx/rPIQgCj6/ey8Mrd7PEU0cyl1owWK5P9ZGRsuRkkUBihslYIJ8VU87hsbt5au1+djdvo8pZhtlgotzuQZIlLk108O7gRUYjPpq99Xxl67MMh8ZZVdFMlbMch9mOXqejPzjMT64d5MTAeVJimr1Ld/CFjU/gMjuodpVT764hmUtxduQK7/SfYSwyxZrKZfzahkdZX71ywWz6AKlUmo7uHqb809TX1lBXXbXgPEuhRNs19K4S7KtWzQsWY6kHwWhCnJ4mfukikXdPYHC6KL3/gfzkY0kJgiCgMxoxejxkRkcJHTlM9Oxp9E4nngcfxL1rFwa3G0Gnw+B0YmlqQorHiV+5TKLtGoJOT+l9eyl/+kB+rZkgMBUI0jswSCKZpGX1SlxOJzqDAUOJGyWVInb+HOHjx5DjcUp27MB9332Ya+sWbMLdTrd9IeWHyd/jcYpwKsa2hvUY9fmkdAAZMZ+/eCLqZyLqx6A3UOnwUmp1kZFycylOs1KO0YgPnaBjS926udceDfsYDo8TSkVRVZVyh4clnnrKZnNgxbNJBoIjzKQibK1vocSSH0FJZJP0z4wykwzPW/qfHzQwYzfZqHdX4bI4Mej0yIpCIpdkKDQ+lz7WZbZT765miaeesyNXaHBXU+UsR1YVAong3H0dARxmG02eOpaXNc29VzgdYzg0znh0ipyUo8TqpMpZnr83yock/stkswyPjhOORqmurKCyrAyrtbg2fKK9HUEnYK5vwFCwmDEXCJAZGiI3HUCVZczVNVgaGjB4PPMmAOVEglRvL9mJfJPXVF2DuaYGU3k5gvH9xOhKNkuqtyc/FCwrGEtLsdTXY657fwFnKBLFNzmFJMssW9KEw57/vyvpNJnRUdJDgyiZNEaPF3N9PabKKvRFXkU/rjseLBrN3eqTv3ZpNJ8SWrBoNEXSgkWjKZIWLBpNkbRg0WiKpAWLRlMkLVg0miIVFSyyLCPL8m27w5NGczcqalJyZGwCFZUyT2nRyyg0mk+booLlf/7Td7nSfp3Gulr27d7Jnnt2FFbRaD71imqGbd+0gW2bNpBKZzhy/FRhsUbzK6GoYPnM1s08+sBeaqurGBjJ33RTo/lVU1SwAFjMZmxWC6j5O3RpNL9qig4WZvejqKpKNpvVAkbzK6foYLFaLTjsdiRZZnomhPQhuWk1mk+booPFYrZgs1nJ5nJ09w2Qy948LY1G82lVdLCYjAaWNzdx3z3bOXryNKcvXGImHC6sptF8ahUdLDqdDo/bTWN9HT5/gO7+AWKxhRO/aTSfNkUHi6IoBIIzdPcNsHbVCmqqqrBYFk6ioNF82hQdLLlcjsHhES63dfDw/Xt44qF9VFdWFFbTaD61ig6WSCxOMBTGYDBQVV6+4P0/NJpPq6KDRVVVFEVBr9fh8bjRa8Gi+RVTdLCIokhOFPO5go3520hoNL9KigqWeCJBMBQmnc4UnRZUo/m0KSpYuvsHudrRSSqdZmlTQ2GxRvMroahgOX3+EkdPnkKUJPbv2VVYrNH8Sihq81c8kSCbEzEY9NgsFkyf8I0uNZrFqKhg0Wg0RTbDNBqNFiwaTdG0YNFoivT/A4YLE0scO0z6AAAAAElFTkSuQmCC;" parent="1" vertex="1">
          <mxGeometry x="650" y="319.4" width="132.8" height="70" as="geometry" />
        </mxCell>
        <mxCell id="mb8kbM6TeNH6ofwH7m_D-23" value="Link:&amp;nbsp;http://localhost:8080/impostos/calculo" style="rounded=1;whiteSpace=wrap;html=1;" parent="1" vertex="1">
          <mxGeometry x="597" y="160" width="230" height="60" as="geometry" />
        </mxCell>
        <mxCell id="rRmEcV2QycdQw7Lgbjog-1" value="" style="edgeStyle=none;orthogonalLoop=1;jettySize=auto;html=1;rounded=0;entryX=0.5;entryY=0;entryDx=0;entryDy=0;exitX=0.545;exitY=1.006;exitDx=0;exitDy=0;exitPerimeter=0;" edge="1" parent="1" source="mb8kbM6TeNH6ofwH7m_D-17" target="mb8kbM6TeNH6ofwH7m_D-1">
          <mxGeometry width="100" relative="1" as="geometry">
            <mxPoint x="370" y="270" as="sourcePoint" />
            <mxPoint x="470" y="270" as="targetPoint" />
            <Array as="points" />
          </mxGeometry>
        </mxCell>
        <mxCell id="rRmEcV2QycdQw7Lgbjog-2" value="" style="edgeStyle=none;orthogonalLoop=1;jettySize=auto;html=1;rounded=0;entryX=0.5;entryY=0;entryDx=0;entryDy=0;exitX=0.5;exitY=1;exitDx=0;exitDy=0;" edge="1" parent="1" source="mb8kbM6TeNH6ofwH7m_D-23" target="mb8kbM6TeNH6ofwH7m_D-22">
          <mxGeometry width="100" relative="1" as="geometry">
            <mxPoint x="630" y="270" as="sourcePoint" />
            <mxPoint x="730" y="270" as="targetPoint" />
            <Array as="points" />
          </mxGeometry>
        </mxCell>
        <mxCell id="rRmEcV2QycdQw7Lgbjog-3" value="" style="edgeStyle=none;orthogonalLoop=1;jettySize=auto;html=1;rounded=0;entryX=0.621;entryY=0.049;entryDx=0;entryDy=0;entryPerimeter=0;exitX=0.527;exitY=0.993;exitDx=0;exitDy=0;exitPerimeter=0;" edge="1" parent="1" source="mb8kbM6TeNH6ofwH7m_D-22" target="9RoJom2z7DTQqJsQtxxn-1">
          <mxGeometry width="100" relative="1" as="geometry">
            <mxPoint x="670" y="400" as="sourcePoint" />
            <mxPoint x="770" y="400" as="targetPoint" />
            <Array as="points" />
          </mxGeometry>
        </mxCell>
      </root>
    </mxGraphModel>
  </diagram>
  <diagram id="Bv-3acSbLSSK4TJAdPuL" name="Regra de negocio de Usuários.">
    <mxGraphModel dx="1865" dy="783" grid="1" gridSize="10" guides="1" tooltips="1" connect="1" arrows="1" fold="1" page="1" pageScale="1" pageWidth="827" pageHeight="1169" math="0" shadow="0">
      <root>
        <mxCell id="0" />
        <mxCell id="1" parent="0" />
        <mxCell id="6mUFiUJzMhpRnrG7PR7U-1" value="Regra de negocio de Usuários." style="whiteSpace=wrap;html=1;" vertex="1" parent="1">
          <mxGeometry x="390" width="180" height="40" as="geometry" />
        </mxCell>
        <mxCell id="o6cAYBlfBlKXVDwpkpI7-6" value="Segurança: O software fará uma&lt;span style=&quot;background-color: transparent;&quot;&gt;&lt;font&gt;&amp;nbsp;&lt;font&gt;autenticação e autorização&lt;/font&gt; (&lt;/font&gt;utilizando Spring Security e JWT.&lt;font&gt;).&amp;nbsp;&lt;/font&gt;&lt;/span&gt;&lt;div&gt;Apenas usuários autenticados podem acessar os endpoints.&lt;/div&gt;" style="whiteSpace=wrap;html=1;" vertex="1" parent="1">
          <mxGeometry x="160" y="70" width="540" height="60" as="geometry" />
        </mxCell>
        <mxCell id="o6cAYBlfBlKXVDwpkpI7-7" style="edgeStyle=orthogonalEdgeStyle;rounded=0;orthogonalLoop=1;jettySize=auto;html=1;exitX=0.5;exitY=1;exitDx=0;exitDy=0;entryX=0.612;entryY=0.061;entryDx=0;entryDy=0;entryPerimeter=0;" edge="1" parent="1" source="6mUFiUJzMhpRnrG7PR7U-1" target="o6cAYBlfBlKXVDwpkpI7-6">
          <mxGeometry relative="1" as="geometry" />
        </mxCell>
        <mxCell id="LmFcU50QbD2fTBQmfdJ4-1" value="Serviços oferecidos" style="shape=tape;whiteSpace=wrap;html=1;" vertex="1" parent="1">
          <mxGeometry x="400" y="270" width="134" height="60" as="geometry" />
        </mxCell>
        <mxCell id="7xNtrwBK3P_getenvCjK-1" value="POST /user/register&lt;div&gt;Endpoint para registrar novos usuários no sistema.&lt;/div&gt;" style="rounded=1;whiteSpace=wrap;html=1;" vertex="1" parent="1">
          <mxGeometry x="104" y="380" width="310" height="60" as="geometry" />
        </mxCell>
        <mxCell id="tWFbgoaU9YC1DDk9uScj-1" value="" style="edgeStyle=none;orthogonalLoop=1;jettySize=auto;html=1;rounded=0;exitX=0.448;exitY=1.022;exitDx=0;exitDy=0;exitPerimeter=0;" edge="1" parent="1" source="7xNtrwBK3P_getenvCjK-1">
          <mxGeometry width="100" relative="1" as="geometry">
            <mxPoint x="210" y="470" as="sourcePoint" />
            <mxPoint x="243" y="490" as="targetPoint" />
            <Array as="points" />
          </mxGeometry>
        </mxCell>
        <mxCell id="tWFbgoaU9YC1DDk9uScj-2" value="(Request Body):&lt;div&gt;&lt;span id=&quot;docs-internal-guid-5bb176f0-7fff-4349-e69b-ec73934ededb&quot;&gt;&lt;p style=&quot;line-height:1.3800000000000001;margin-top:0pt;margin-bottom:0pt;&quot; dir=&quot;ltr&quot;&gt;&lt;span style=&quot;font-size: 9pt; font-family: &amp;quot;Roboto Mono&amp;quot;, monospace; color: rgb(55, 71, 79); background-color: transparent; font-variant-numeric: normal; font-variant-east-asian: normal; font-variant-alternates: normal; font-variant-position: normal; font-variant-emoji: normal; vertical-align: baseline; white-space-collapse: preserve;&quot;&gt;{&lt;/span&gt;&lt;/p&gt;&lt;p style=&quot;line-height:1.3800000000000001;margin-top:0pt;margin-bottom:0pt;&quot; dir=&quot;ltr&quot;&gt;&lt;span style=&quot;font-size: 9pt; font-family: &amp;quot;Roboto Mono&amp;quot;, monospace; background-color: transparent; font-variant-numeric: normal; font-variant-east-asian: normal; font-variant-alternates: normal; font-variant-position: normal; font-variant-emoji: normal; vertical-align: baseline; white-space-collapse: preserve;&quot;&gt;&amp;nbsp;&amp;nbsp;&lt;/span&gt;&lt;span style=&quot;font-size: 9pt; font-family: &amp;quot;Roboto Mono&amp;quot;, monospace; color: rgb(24, 128, 56); background-color: transparent; font-variant-numeric: normal; font-variant-east-asian: normal; font-variant-alternates: normal; font-variant-position: normal; font-variant-emoji: normal; vertical-align: baseline; white-space-collapse: preserve;&quot;&gt;&quot;username&quot;&lt;/span&gt;&lt;span style=&quot;font-size: 9pt; font-family: &amp;quot;Roboto Mono&amp;quot;, monospace; color: rgb(55, 71, 79); background-color: transparent; font-variant-numeric: normal; font-variant-east-asian: normal; font-variant-alternates: normal; font-variant-position: normal; font-variant-emoji: normal; vertical-align: baseline; white-space-collapse: preserve;&quot;&gt;:&lt;/span&gt;&lt;span style=&quot;font-size: 9pt; font-family: &amp;quot;Roboto Mono&amp;quot;, monospace; background-color: transparent; font-variant-numeric: normal; font-variant-east-asian: normal; font-variant-alternates: normal; font-variant-position: normal; font-variant-emoji: normal; vertical-align: baseline; white-space-collapse: preserve;&quot;&gt; &lt;/span&gt;&lt;span style=&quot;font-size: 9pt; font-family: &amp;quot;Roboto Mono&amp;quot;, monospace; color: rgb(24, 128, 56); background-color: transparent; font-variant-numeric: normal; font-variant-east-asian: normal; font-variant-alternates: normal; font-variant-position: normal; font-variant-emoji: normal; vertical-align: baseline; white-space-collapse: preserve;&quot;&gt;&quot;usuario123&quot;&lt;/span&gt;&lt;span style=&quot;font-size: 9pt; font-family: &amp;quot;Roboto Mono&amp;quot;, monospace; color: rgb(55, 71, 79); background-color: transparent; font-variant-numeric: normal; font-variant-east-asian: normal; font-variant-alternates: normal; font-variant-position: normal; font-variant-emoji: normal; vertical-align: baseline; white-space-collapse: preserve;&quot;&gt;,&lt;/span&gt;&lt;/p&gt;&lt;p style=&quot;line-height:1.3800000000000001;margin-top:0pt;margin-bottom:0pt;&quot; dir=&quot;ltr&quot;&gt;&lt;span style=&quot;font-size: 9pt; font-family: &amp;quot;Roboto Mono&amp;quot;, monospace; background-color: transparent; font-variant-numeric: normal; font-variant-east-asian: normal; font-variant-alternates: normal; font-variant-position: normal; font-variant-emoji: normal; vertical-align: baseline; white-space-collapse: preserve;&quot;&gt;&amp;nbsp;&amp;nbsp;&lt;/span&gt;&lt;span style=&quot;font-size: 9pt; font-family: &amp;quot;Roboto Mono&amp;quot;, monospace; color: rgb(24, 128, 56); background-color: transparent; font-variant-numeric: normal; font-variant-east-asian: normal; font-variant-alternates: normal; font-variant-position: normal; font-variant-emoji: normal; vertical-align: baseline; white-space-collapse: preserve;&quot;&gt;&quot;password&quot;&lt;/span&gt;&lt;span style=&quot;font-size: 9pt; font-family: &amp;quot;Roboto Mono&amp;quot;, monospace; color: rgb(55, 71, 79); background-color: transparent; font-variant-numeric: normal; font-variant-east-asian: normal; font-variant-alternates: normal; font-variant-position: normal; font-variant-emoji: normal; vertical-align: baseline; white-space-collapse: preserve;&quot;&gt;:&lt;/span&gt;&lt;span style=&quot;font-size: 9pt; font-family: &amp;quot;Roboto Mono&amp;quot;, monospace; background-color: transparent; font-variant-numeric: normal; font-variant-east-asian: normal; font-variant-alternates: normal; font-variant-position: normal; font-variant-emoji: normal; vertical-align: baseline; white-space-collapse: preserve;&quot;&gt; &lt;/span&gt;&lt;span style=&quot;font-size: 9pt; font-family: &amp;quot;Roboto Mono&amp;quot;, monospace; color: rgb(24, 128, 56); background-color: transparent; font-variant-numeric: normal; font-variant-east-asian: normal; font-variant-alternates: normal; font-variant-position: normal; font-variant-emoji: normal; vertical-align: baseline; white-space-collapse: preserve;&quot;&gt;&quot;senhaSegura&quot;&lt;/span&gt;&lt;span style=&quot;font-size: 9pt; font-family: &amp;quot;Roboto Mono&amp;quot;, monospace; color: rgb(55, 71, 79); background-color: transparent; font-variant-numeric: normal; font-variant-east-asian: normal; font-variant-alternates: normal; font-variant-position: normal; font-variant-emoji: normal; vertical-align: baseline; white-space-collapse: preserve;&quot;&gt;,&lt;/span&gt;&lt;/p&gt;&lt;p style=&quot;line-height:1.3800000000000001;margin-top:0pt;margin-bottom:0pt;&quot; dir=&quot;ltr&quot;&gt;&lt;span style=&quot;font-size: 9pt; font-family: &amp;quot;Roboto Mono&amp;quot;, monospace; background-color: transparent; font-variant-numeric: normal; font-variant-east-asian: normal; font-variant-alternates: normal; font-variant-position: normal; font-variant-emoji: normal; vertical-align: baseline; white-space-collapse: preserve;&quot;&gt;&amp;nbsp;&amp;nbsp;&lt;/span&gt;&lt;span style=&quot;font-size: 9pt; font-family: &amp;quot;Roboto Mono&amp;quot;, monospace; color: rgb(24, 128, 56); background-color: transparent; font-variant-numeric: normal; font-variant-east-asian: normal; font-variant-alternates: normal; font-variant-position: normal; font-variant-emoji: normal; vertical-align: baseline; white-space-collapse: preserve;&quot;&gt;&quot;role&quot;&lt;/span&gt;&lt;span style=&quot;font-size: 9pt; font-family: &amp;quot;Roboto Mono&amp;quot;, monospace; color: rgb(55, 71, 79); background-color: transparent; font-variant-numeric: normal; font-variant-east-asian: normal; font-variant-alternates: normal; font-variant-position: normal; font-variant-emoji: normal; vertical-align: baseline; white-space-collapse: preserve;&quot;&gt;:&lt;/span&gt;&lt;span style=&quot;font-size: 9pt; font-family: &amp;quot;Roboto Mono&amp;quot;, monospace; background-color: transparent; font-variant-numeric: normal; font-variant-east-asian: normal; font-variant-alternates: normal; font-variant-position: normal; font-variant-emoji: normal; vertical-align: baseline; white-space-collapse: preserve;&quot;&gt; &lt;/span&gt;&lt;span style=&quot;font-size: 9pt; font-family: &amp;quot;Roboto Mono&amp;quot;, monospace; color: rgb(24, 128, 56); background-color: transparent; font-variant-numeric: normal; font-variant-east-asian: normal; font-variant-alternates: normal; font-variant-position: normal; font-variant-emoji: normal; vertical-align: baseline; white-space-collapse: preserve;&quot;&gt;&quot;USER&quot;&lt;/span&gt;&lt;/p&gt;&lt;p style=&quot;line-height:1.3800000000000001;margin-top:0pt;margin-bottom:0pt;&quot; dir=&quot;ltr&quot;&gt;&lt;span style=&quot;font-size: 9pt; font-family: &amp;quot;Roboto Mono&amp;quot;, monospace; color: rgb(55, 71, 79); background-color: transparent; font-variant-numeric: normal; font-variant-east-asian: normal; font-variant-alternates: normal; font-variant-position: normal; font-variant-emoji: normal; vertical-align: baseline; white-space-collapse: preserve;&quot;&gt;}&lt;/span&gt;&lt;/p&gt;&lt;/span&gt;&lt;/div&gt;" style="rounded=1;whiteSpace=wrap;html=1;" vertex="1" parent="1">
          <mxGeometry x="150" y="490" width="196" height="110" as="geometry" />
        </mxCell>
        <mxCell id="tWFbgoaU9YC1DDk9uScj-3" value="" style="edgeStyle=none;orthogonalLoop=1;jettySize=auto;html=1;rounded=0;exitX=0.461;exitY=1.02;exitDx=0;exitDy=0;exitPerimeter=0;" edge="1" parent="1" source="tWFbgoaU9YC1DDk9uScj-2">
          <mxGeometry width="100" relative="1" as="geometry">
            <mxPoint x="220" y="640" as="sourcePoint" />
            <mxPoint x="240" y="670" as="targetPoint" />
            <Array as="points" />
          </mxGeometry>
        </mxCell>
        <mxCell id="tWFbgoaU9YC1DDk9uScj-4" value="&lt;div&gt;(Responset Body):&lt;div&gt;&lt;span id=&quot;docs-internal-guid-5bb176f0-7fff-4349-e69b-ec73934ededb&quot;&gt;&lt;/span&gt;&lt;/div&gt;&lt;/div&gt;&lt;div&gt;&lt;span id=&quot;docs-internal-guid-6502c429-7fff-c879-e92d-5a7490c4d7c9&quot;&gt;&lt;p style=&quot;line-height:1.3800000000000001;margin-top:0pt;margin-bottom:0pt;&quot; dir=&quot;ltr&quot;&gt;&lt;span style=&quot;font-size: 9pt; font-family: &amp;quot;Roboto Mono&amp;quot;, monospace; color: rgb(55, 71, 79); background-color: transparent; font-variant-numeric: normal; font-variant-east-asian: normal; font-variant-alternates: normal; font-variant-position: normal; font-variant-emoji: normal; vertical-align: baseline; white-space-collapse: preserve;&quot;&gt;{&lt;/span&gt;&lt;/p&gt;&lt;p style=&quot;line-height:1.3800000000000001;margin-top:0pt;margin-bottom:0pt;&quot; dir=&quot;ltr&quot;&gt;&lt;span style=&quot;font-size: 9pt; font-family: &amp;quot;Roboto Mono&amp;quot;, monospace; background-color: transparent; font-variant-numeric: normal; font-variant-east-asian: normal; font-variant-alternates: normal; font-variant-position: normal; font-variant-emoji: normal; vertical-align: baseline; white-space-collapse: preserve;&quot;&gt;&amp;nbsp;&amp;nbsp;&lt;/span&gt;&lt;span style=&quot;font-size: 9pt; font-family: &amp;quot;Roboto Mono&amp;quot;, monospace; color: rgb(24, 128, 56); background-color: transparent; font-variant-numeric: normal; font-variant-east-asian: normal; font-variant-alternates: normal; font-variant-position: normal; font-variant-emoji: normal; vertical-align: baseline; white-space-collapse: preserve;&quot;&gt;&quot;id&quot;&lt;/span&gt;&lt;span style=&quot;font-size: 9pt; font-family: &amp;quot;Roboto Mono&amp;quot;, monospace; color: rgb(55, 71, 79); background-color: transparent; font-variant-numeric: normal; font-variant-east-asian: normal; font-variant-alternates: normal; font-variant-position: normal; font-variant-emoji: normal; vertical-align: baseline; white-space-collapse: preserve;&quot;&gt;:&lt;/span&gt;&lt;span style=&quot;font-size: 9pt; font-family: &amp;quot;Roboto Mono&amp;quot;, monospace; background-color: transparent; font-variant-numeric: normal; font-variant-east-asian: normal; font-variant-alternates: normal; font-variant-position: normal; font-variant-emoji: normal; vertical-align: baseline; white-space-collapse: preserve;&quot;&gt; &lt;/span&gt;&lt;span style=&quot;font-size: 9pt; font-family: &amp;quot;Roboto Mono&amp;quot;, monospace; color: rgb(197, 34, 31); background-color: transparent; font-variant-numeric: normal; font-variant-east-asian: normal; font-variant-alternates: normal; font-variant-position: normal; font-variant-emoji: normal; vertical-align: baseline; white-space-collapse: preserve;&quot;&gt;1&lt;/span&gt;&lt;span style=&quot;font-size: 9pt; font-family: &amp;quot;Roboto Mono&amp;quot;, monospace; color: rgb(55, 71, 79); background-color: transparent; font-variant-numeric: normal; font-variant-east-asian: normal; font-variant-alternates: normal; font-variant-position: normal; font-variant-emoji: normal; vertical-align: baseline; white-space-collapse: preserve;&quot;&gt;,&lt;/span&gt;&lt;/p&gt;&lt;p style=&quot;line-height:1.3800000000000001;margin-top:0pt;margin-bottom:0pt;&quot; dir=&quot;ltr&quot;&gt;&lt;span style=&quot;font-size: 9pt; font-family: &amp;quot;Roboto Mono&amp;quot;, monospace; background-color: transparent; font-variant-numeric: normal; font-variant-east-asian: normal; font-variant-alternates: normal; font-variant-position: normal; font-variant-emoji: normal; vertical-align: baseline; white-space-collapse: preserve;&quot;&gt;&amp;nbsp;&amp;nbsp;&lt;/span&gt;&lt;span style=&quot;font-size: 9pt; font-family: &amp;quot;Roboto Mono&amp;quot;, monospace; color: rgb(24, 128, 56); background-color: transparent; font-variant-numeric: normal; font-variant-east-asian: normal; font-variant-alternates: normal; font-variant-position: normal; font-variant-emoji: normal; vertical-align: baseline; white-space-collapse: preserve;&quot;&gt;&quot;username&quot;&lt;/span&gt;&lt;span style=&quot;font-size: 9pt; font-family: &amp;quot;Roboto Mono&amp;quot;, monospace; color: rgb(55, 71, 79); background-color: transparent; font-variant-numeric: normal; font-variant-east-asian: normal; font-variant-alternates: normal; font-variant-position: normal; font-variant-emoji: normal; vertical-align: baseline; white-space-collapse: preserve;&quot;&gt;:&lt;/span&gt;&lt;span style=&quot;font-size: 9pt; font-family: &amp;quot;Roboto Mono&amp;quot;, monospace; background-color: transparent; font-variant-numeric: normal; font-variant-east-asian: normal; font-variant-alternates: normal; font-variant-position: normal; font-variant-emoji: normal; vertical-align: baseline; white-space-collapse: preserve;&quot;&gt; &lt;/span&gt;&lt;span style=&quot;font-size: 9pt; font-family: &amp;quot;Roboto Mono&amp;quot;, monospace; color: rgb(24, 128, 56); background-color: transparent; font-variant-numeric: normal; font-variant-east-asian: normal; font-variant-alternates: normal; font-variant-position: normal; font-variant-emoji: normal; vertical-align: baseline; white-space-collapse: preserve;&quot;&gt;&quot;usuario123&quot;&lt;/span&gt;&lt;span style=&quot;font-size: 9pt; font-family: &amp;quot;Roboto Mono&amp;quot;, monospace; color: rgb(55, 71, 79); background-color: transparent; font-variant-numeric: normal; font-variant-east-asian: normal; font-variant-alternates: normal; font-variant-position: normal; font-variant-emoji: normal; vertical-align: baseline; white-space-collapse: preserve;&quot;&gt;,&lt;/span&gt;&lt;/p&gt;&lt;p style=&quot;line-height:1.3800000000000001;margin-top:0pt;margin-bottom:0pt;&quot; dir=&quot;ltr&quot;&gt;&lt;span style=&quot;font-size: 9pt; font-family: &amp;quot;Roboto Mono&amp;quot;, monospace; background-color: transparent; font-variant-numeric: normal; font-variant-east-asian: normal; font-variant-alternates: normal; font-variant-position: normal; font-variant-emoji: normal; vertical-align: baseline; white-space-collapse: preserve;&quot;&gt;&amp;nbsp;&amp;nbsp;&lt;/span&gt;&lt;span style=&quot;font-size: 9pt; font-family: &amp;quot;Roboto Mono&amp;quot;, monospace; color: rgb(24, 128, 56); background-color: transparent; font-variant-numeric: normal; font-variant-east-asian: normal; font-variant-alternates: normal; font-variant-position: normal; font-variant-emoji: normal; vertical-align: baseline; white-space-collapse: preserve;&quot;&gt;&quot;role&quot;&lt;/span&gt;&lt;span style=&quot;font-size: 9pt; font-family: &amp;quot;Roboto Mono&amp;quot;, monospace; color: rgb(55, 71, 79); background-color: transparent; font-variant-numeric: normal; font-variant-east-asian: normal; font-variant-alternates: normal; font-variant-position: normal; font-variant-emoji: normal; vertical-align: baseline; white-space-collapse: preserve;&quot;&gt;:&lt;/span&gt;&lt;span style=&quot;font-size: 9pt; font-family: &amp;quot;Roboto Mono&amp;quot;, monospace; background-color: transparent; font-variant-numeric: normal; font-variant-east-asian: normal; font-variant-alternates: normal; font-variant-position: normal; font-variant-emoji: normal; vertical-align: baseline; white-space-collapse: preserve;&quot;&gt; &lt;/span&gt;&lt;span style=&quot;font-size: 9pt; font-family: &amp;quot;Roboto Mono&amp;quot;, monospace; color: rgb(24, 128, 56); background-color: transparent; font-variant-numeric: normal; font-variant-east-asian: normal; font-variant-alternates: normal; font-variant-position: normal; font-variant-emoji: normal; vertical-align: baseline; white-space-collapse: preserve;&quot;&gt;&quot;USER&quot;&lt;/span&gt;&lt;/p&gt;&lt;p style=&quot;line-height:1.3800000000000001;margin-top:0pt;margin-bottom:0pt;&quot; dir=&quot;ltr&quot;&gt;&lt;span style=&quot;font-size: 9pt; font-family: &amp;quot;Roboto Mono&amp;quot;, monospace; color: rgb(55, 71, 79); background-color: transparent; font-variant-numeric: normal; font-variant-east-asian: normal; font-variant-alternates: normal; font-variant-position: normal; font-variant-emoji: normal; vertical-align: baseline; white-space-collapse: preserve;&quot;&gt;}&lt;/span&gt;&lt;/p&gt;&lt;div&gt;&lt;span style=&quot;font-size: 9pt; font-family: &amp;quot;Roboto Mono&amp;quot;, monospace; color: rgb(55, 71, 79); background-color: transparent; font-variant-numeric: normal; font-variant-east-asian: normal; font-variant-alternates: normal; font-variant-position: normal; font-variant-emoji: normal; vertical-align: baseline; white-space-collapse: preserve;&quot;&gt;&lt;br&gt;&lt;/span&gt;&lt;/div&gt;&lt;/span&gt;&lt;/div&gt;" style="rounded=1;whiteSpace=wrap;html=1;" vertex="1" parent="1">
          <mxGeometry x="120" y="670" width="250" height="110" as="geometry" />
        </mxCell>
        <mxCell id="tWFbgoaU9YC1DDk9uScj-5" value="" style="edgeStyle=none;orthogonalLoop=1;jettySize=auto;html=1;rounded=0;exitX=0;exitY=0.65;exitDx=0;exitDy=0;exitPerimeter=0;" edge="1" parent="1" source="LmFcU50QbD2fTBQmfdJ4-1">
          <mxGeometry width="100" relative="1" as="geometry">
            <mxPoint x="280" y="310" as="sourcePoint" />
            <mxPoint x="240" y="379" as="targetPoint" />
            <Array as="points">
              <mxPoint x="240" y="309" />
            </Array>
          </mxGeometry>
        </mxCell>
        <mxCell id="tWFbgoaU9YC1DDk9uScj-6" value="" style="edgeStyle=none;orthogonalLoop=1;jettySize=auto;html=1;rounded=0;entryX=0.656;entryY=0.016;entryDx=0;entryDy=0;entryPerimeter=0;" edge="1" parent="1" target="tWFbgoaU9YC1DDk9uScj-7">
          <mxGeometry width="100" relative="1" as="geometry">
            <mxPoint x="540" y="299" as="sourcePoint" />
            <mxPoint x="650" y="360" as="targetPoint" />
            <Array as="points">
              <mxPoint x="680" y="300" />
            </Array>
          </mxGeometry>
        </mxCell>
        <mxCell id="tWFbgoaU9YC1DDk9uScj-7" value="&lt;font style=&quot;font-size: 12px;&quot;&gt;POST /user/login&lt;/font&gt;&lt;div&gt;&lt;span id=&quot;docs-internal-guid-dc510b74-7fff-4e16-6b35-c41ff19f62be&quot;&gt;&lt;p style=&quot;line-height:1.3800000000000001;margin-top:0pt;margin-bottom:0pt;&quot; dir=&quot;ltr&quot;&gt;&lt;span style=&quot;font-family: Arial, sans-serif; background-color: transparent; font-variant-numeric: normal; font-variant-east-asian: normal; font-variant-alternates: normal; font-variant-position: normal; font-variant-emoji: normal; vertical-align: baseline; white-space-collapse: preserve;&quot;&gt;&lt;font style=&quot;font-size: 12px;&quot;&gt;Descrição: Endpoint para autenticar usuários e gerar um token JWT.&lt;/font&gt;&lt;/span&gt;&lt;/p&gt;&lt;p style=&quot;line-height:1.3800000000000001;margin-top:0pt;margin-bottom:0pt;&quot; dir=&quot;ltr&quot;&gt;&lt;br&gt;&lt;/p&gt;&lt;/span&gt;&lt;/div&gt;" style="rounded=1;whiteSpace=wrap;html=1;" vertex="1" parent="1">
          <mxGeometry x="440" y="380" width="370" height="60" as="geometry" />
        </mxCell>
        <mxCell id="tWFbgoaU9YC1DDk9uScj-11" value="&lt;span style=&quot;color: light-dark(rgb(0, 0, 0), rgb(255, 255, 255)); background-color: transparent;&quot;&gt;Regras de negócios:&lt;/span&gt;&lt;br&gt;&lt;span style=&quot;color: light-dark(rgb(0, 0, 0), rgb(255, 255, 255)); background-color: transparent; text-align: left;&quot;&gt;O username deve ser único&lt;/span&gt;&lt;br&gt;&lt;span style=&quot;color: light-dark(rgb(0, 0, 0), rgb(255, 255, 255)); background-color: transparent; text-align: left;&quot; id=&quot;docs-internal-guid-b13ca787-7fff-34df-8615-92ee57604431&quot;&gt;&lt;span style=&quot;font-size: 11pt; font-family: Arial, sans-serif; background-color: transparent; font-variant-numeric: normal; font-variant-east-asian: normal; font-variant-alternates: normal; font-variant-position: normal; font-variant-emoji: normal; vertical-align: baseline; white-space-collapse: preserve;&quot;&gt;A senha deve ser armazenada de forma segura (hashing com BCrypt).&lt;/span&gt;&lt;/span&gt;&lt;span style=&quot;color: light-dark(rgb(0, 0, 0), rgb(255, 255, 255)); background-color: transparent; text-align: left;&quot;&gt;.&lt;/span&gt;" style="shape=process;whiteSpace=wrap;html=1;backgroundOutline=1;" vertex="1" parent="1">
          <mxGeometry x="134" y="160" width="592" height="70" as="geometry" />
        </mxCell>
        <mxCell id="tWFbgoaU9YC1DDk9uScj-14" value="&lt;span id=&quot;docs-internal-guid-c9a276d3-7fff-9549-79f0-c5fe5bd075d1&quot;&gt;&lt;p style=&quot;line-height:1.3800000000000001;margin-top:0pt;margin-bottom:0pt;&quot; dir=&quot;ltr&quot;&gt;&lt;span style=&quot;font-size: 11pt; font-family: Arial, sans-serif; background-color: transparent; font-variant-numeric: normal; font-variant-east-asian: normal; font-variant-alternates: normal; font-variant-position: normal; font-variant-emoji: normal; vertical-align: baseline; white-space-collapse: preserve;&quot;&gt;(Request Body):&lt;/span&gt;&lt;/p&gt;&lt;p style=&quot;line-height:1.3800000000000001;margin-top:0pt;margin-bottom:0pt;&quot; dir=&quot;ltr&quot;&gt;&lt;span style=&quot;font-size:9pt;font-family:&#39;Roboto Mono&#39;,monospace;color:#37474f;background-color:transparent;font-weight:400;font-style:normal;font-variant:normal;text-decoration:none;vertical-align:baseline;white-space:pre;white-space:pre-wrap;&quot;&gt;{&lt;/span&gt;&lt;/p&gt;&lt;p style=&quot;line-height:1.3800000000000001;margin-top:0pt;margin-bottom:0pt;&quot; dir=&quot;ltr&quot;&gt;&lt;span style=&quot;font-size:9pt;font-family:&#39;Roboto Mono&#39;,monospace;color:#000000;background-color:transparent;font-weight:400;font-style:normal;font-variant:normal;text-decoration:none;vertical-align:baseline;white-space:pre;white-space:pre-wrap;&quot;&gt;&amp;nbsp;&amp;nbsp;&lt;/span&gt;&lt;span style=&quot;font-size:9pt;font-family:&#39;Roboto Mono&#39;,monospace;color:#188038;background-color:transparent;font-weight:400;font-style:normal;font-variant:normal;text-decoration:none;vertical-align:baseline;white-space:pre;white-space:pre-wrap;&quot;&gt;&quot;username&quot;&lt;/span&gt;&lt;span style=&quot;font-size:9pt;font-family:&#39;Roboto Mono&#39;,monospace;color:#37474f;background-color:transparent;font-weight:400;font-style:normal;font-variant:normal;text-decoration:none;vertical-align:baseline;white-space:pre;white-space:pre-wrap;&quot;&gt;:&lt;/span&gt;&lt;span style=&quot;font-size:9pt;font-family:&#39;Roboto Mono&#39;,monospace;color:#000000;background-color:transparent;font-weight:400;font-style:normal;font-variant:normal;text-decoration:none;vertical-align:baseline;white-space:pre;white-space:pre-wrap;&quot;&gt; &lt;/span&gt;&lt;span style=&quot;font-size:9pt;font-family:&#39;Roboto Mono&#39;,monospace;color:#188038;background-color:transparent;font-weight:400;font-style:normal;font-variant:normal;text-decoration:none;vertical-align:baseline;white-space:pre;white-space:pre-wrap;&quot;&gt;&quot;usuario123&quot;&lt;/span&gt;&lt;span style=&quot;font-size:9pt;font-family:&#39;Roboto Mono&#39;,monospace;color:#37474f;background-color:transparent;font-weight:400;font-style:normal;font-variant:normal;text-decoration:none;vertical-align:baseline;white-space:pre;white-space:pre-wrap;&quot;&gt;,&lt;/span&gt;&lt;/p&gt;&lt;p style=&quot;line-height:1.3800000000000001;margin-top:0pt;margin-bottom:0pt;&quot; dir=&quot;ltr&quot;&gt;&lt;span style=&quot;font-size:9pt;font-family:&#39;Roboto Mono&#39;,monospace;color:#000000;background-color:transparent;font-weight:400;font-style:normal;font-variant:normal;text-decoration:none;vertical-align:baseline;white-space:pre;white-space:pre-wrap;&quot;&gt;&amp;nbsp;&amp;nbsp;&lt;/span&gt;&lt;span style=&quot;font-size:9pt;font-family:&#39;Roboto Mono&#39;,monospace;color:#188038;background-color:transparent;font-weight:400;font-style:normal;font-variant:normal;text-decoration:none;vertical-align:baseline;white-space:pre;white-space:pre-wrap;&quot;&gt;&quot;password&quot;&lt;/span&gt;&lt;span style=&quot;font-size:9pt;font-family:&#39;Roboto Mono&#39;,monospace;color:#37474f;background-color:transparent;font-weight:400;font-style:normal;font-variant:normal;text-decoration:none;vertical-align:baseline;white-space:pre;white-space:pre-wrap;&quot;&gt;:&lt;/span&gt;&lt;span style=&quot;font-size:9pt;font-family:&#39;Roboto Mono&#39;,monospace;color:#000000;background-color:transparent;font-weight:400;font-style:normal;font-variant:normal;text-decoration:none;vertical-align:baseline;white-space:pre;white-space:pre-wrap;&quot;&gt; &lt;/span&gt;&lt;span style=&quot;font-size:9pt;font-family:&#39;Roboto Mono&#39;,monospace;color:#188038;background-color:transparent;font-weight:400;font-style:normal;font-variant:normal;text-decoration:none;vertical-align:baseline;white-space:pre;white-space:pre-wrap;&quot;&gt;&quot;senhaSegura&quot;&lt;/span&gt;&lt;/p&gt;&lt;p style=&quot;line-height:1.3800000000000001;margin-top:0pt;margin-bottom:0pt;&quot; dir=&quot;ltr&quot;&gt;&lt;span style=&quot;font-size: 11pt; font-family: Arial, sans-serif; background-color: transparent; font-variant-numeric: normal; font-variant-east-asian: normal; font-variant-alternates: normal; font-variant-position: normal; font-variant-emoji: normal; vertical-align: baseline; white-space-collapse: preserve;&quot;&gt;&lt;span id=&quot;docs-internal-guid-bdc2cbc9-7fff-d4ff-a5e0-590b9b285874&quot;&gt;&lt;/span&gt;&lt;/span&gt;&lt;/p&gt;&lt;p style=&quot;line-height:1.3800000000000001;margin-top:0pt;margin-bottom:0pt;&quot; dir=&quot;ltr&quot;&gt;&lt;span style=&quot;font-size:9pt;font-family:&#39;Roboto Mono&#39;,monospace;color:#37474f;background-color:transparent;font-weight:400;font-style:normal;font-variant:normal;text-decoration:none;vertical-align:baseline;white-space:pre;white-space:pre-wrap;&quot;&gt;}&lt;/span&gt;&lt;/p&gt;&lt;div&gt;&lt;span style=&quot;font-size: 11pt; font-family: Arial, sans-serif; background-color: transparent; font-variant-numeric: normal; font-variant-east-asian: normal; font-variant-alternates: normal; font-variant-position: normal; font-variant-emoji: normal; vertical-align: baseline; white-space-collapse: preserve;&quot;&gt;&lt;br&gt;&lt;/span&gt;&lt;/div&gt;&lt;/span&gt;" style="rounded=1;whiteSpace=wrap;html=1;" vertex="1" parent="1">
          <mxGeometry x="580" y="490" width="200" height="100" as="geometry" />
        </mxCell>
        <mxCell id="tWFbgoaU9YC1DDk9uScj-16" value="" style="edgeStyle=none;orthogonalLoop=1;jettySize=auto;html=1;rounded=0;exitX=0.661;exitY=0.988;exitDx=0;exitDy=0;exitPerimeter=0;" edge="1" parent="1" source="tWFbgoaU9YC1DDk9uScj-7" target="tWFbgoaU9YC1DDk9uScj-14">
          <mxGeometry width="100" relative="1" as="geometry">
            <mxPoint x="630" y="440" as="sourcePoint" />
            <mxPoint x="730" y="440" as="targetPoint" />
            <Array as="points" />
          </mxGeometry>
        </mxCell>
        <mxCell id="tWFbgoaU9YC1DDk9uScj-17" value="" style="edgeStyle=none;orthogonalLoop=1;jettySize=auto;html=1;rounded=0;exitX=0.5;exitY=1;exitDx=0;exitDy=0;" edge="1" parent="1" source="tWFbgoaU9YC1DDk9uScj-14">
          <mxGeometry width="100" relative="1" as="geometry">
            <mxPoint x="610" y="680" as="sourcePoint" />
            <mxPoint x="680" y="660" as="targetPoint" />
            <Array as="points" />
          </mxGeometry>
        </mxCell>
        <mxCell id="tWFbgoaU9YC1DDk9uScj-18" value="&lt;div&gt;(Responset Body):&lt;div&gt;&lt;span id=&quot;docs-internal-guid-5bb176f0-7fff-4349-e69b-ec73934ededb&quot;&gt;&lt;/span&gt;&lt;/div&gt;&lt;/div&gt;&lt;div&gt;&lt;span id=&quot;docs-internal-guid-fa2b753a-7fff-28a8-1ee8-17f04ee482dc&quot;&gt;&lt;p style=&quot;line-height:1.3800000000000001;margin-top:0pt;margin-bottom:0pt;&quot; dir=&quot;ltr&quot;&gt;&lt;span style=&quot;font-size: 9pt; font-family: &amp;quot;Roboto Mono&amp;quot;, monospace; color: rgb(55, 71, 79); background-color: transparent; font-variant-numeric: normal; font-variant-east-asian: normal; font-variant-alternates: normal; font-variant-position: normal; font-variant-emoji: normal; vertical-align: baseline; white-space-collapse: preserve;&quot;&gt;{&lt;/span&gt;&lt;/p&gt;&lt;p style=&quot;line-height:1.3800000000000001;margin-top:0pt;margin-bottom:0pt;&quot; dir=&quot;ltr&quot;&gt;&lt;span style=&quot;font-size: 9pt; font-family: &amp;quot;Roboto Mono&amp;quot;, monospace; background-color: transparent; font-variant-numeric: normal; font-variant-east-asian: normal; font-variant-alternates: normal; font-variant-position: normal; font-variant-emoji: normal; vertical-align: baseline; white-space-collapse: preserve;&quot;&gt;&amp;nbsp;&amp;nbsp;&lt;/span&gt;&lt;span style=&quot;font-size: 9pt; font-family: &amp;quot;Roboto Mono&amp;quot;, monospace; color: rgb(24, 128, 56); background-color: transparent; font-variant-numeric: normal; font-variant-east-asian: normal; font-variant-alternates: normal; font-variant-position: normal; font-variant-emoji: normal; vertical-align: baseline; white-space-collapse: preserve;&quot;&gt;&quot;token&quot;&lt;/span&gt;&lt;span style=&quot;font-size: 9pt; font-family: &amp;quot;Roboto Mono&amp;quot;, monospace; color: rgb(55, 71, 79); background-color: transparent; font-variant-numeric: normal; font-variant-east-asian: normal; font-variant-alternates: normal; font-variant-position: normal; font-variant-emoji: normal; vertical-align: baseline; white-space-collapse: preserve;&quot;&gt;:&lt;/span&gt;&lt;span style=&quot;font-size: 9pt; font-family: &amp;quot;Roboto Mono&amp;quot;, monospace; background-color: transparent; font-variant-numeric: normal; font-variant-east-asian: normal; font-variant-alternates: normal; font-variant-position: normal; font-variant-emoji: normal; vertical-align: baseline; white-space-collapse: preserve;&quot;&gt; &lt;/span&gt;&lt;span style=&quot;font-size: 9pt; font-family: &amp;quot;Roboto Mono&amp;quot;, monospace; color: rgb(24, 128, 56); background-color: transparent; font-variant-numeric: normal; font-variant-east-asian: normal; font-variant-alternates: normal; font-variant-position: normal; font-variant-emoji: normal; vertical-align: baseline; white-space-collapse: preserve;&quot;&gt;&quot;eyJhbGciOiJIUzI1NiIsInR5cCI6IkpXVCJ9...&quot;&lt;/span&gt;&lt;/p&gt;&lt;p style=&quot;line-height:1.3800000000000001;margin-top:0pt;margin-bottom:0pt;&quot; dir=&quot;ltr&quot;&gt;&lt;span style=&quot;font-size: 9pt; font-family: &amp;quot;Roboto Mono&amp;quot;, monospace; color: rgb(55, 71, 79); background-color: transparent; font-variant-numeric: normal; font-variant-east-asian: normal; font-variant-alternates: normal; font-variant-position: normal; font-variant-emoji: normal; vertical-align: baseline; white-space-collapse: preserve;&quot;&gt;}&lt;/span&gt;&lt;/p&gt;&lt;div&gt;&lt;span style=&quot;font-size: 9pt; font-family: &amp;quot;Roboto Mono&amp;quot;, monospace; color: rgb(55, 71, 79); background-color: transparent; font-variant-numeric: normal; font-variant-east-asian: normal; font-variant-alternates: normal; font-variant-position: normal; font-variant-emoji: normal; vertical-align: baseline; white-space-collapse: preserve;&quot;&gt;&lt;br&gt;&lt;/span&gt;&lt;/div&gt;&lt;/span&gt;&lt;/div&gt;&lt;div&gt;&lt;span id=&quot;docs-internal-guid-6502c429-7fff-c879-e92d-5a7490c4d7c9&quot;&gt;&lt;/span&gt;&lt;/div&gt;" style="rounded=1;whiteSpace=wrap;html=1;" vertex="1" parent="1">
          <mxGeometry x="540" y="660" width="280" height="100" as="geometry" />
        </mxCell>
      </root>
    </mxGraphModel>
  </diagram>
</mxfile>
